<svg width="32" height="32" viewBox="0 0 32 32" fill="none" xmlns="http://www.w3.org/2000/svg">
<path d="M25.899 6.10101C23.2534 3.45539 19.7416 2 16 2C12.2584 2 8.74663 3.45539 6.10101 6.10101C3.45539 8.74663 2 12.2584 2 16C2 19.7416 3.45539 23.2534 6.10101 25.899C8.74663 28.5446 12.2584 30 16 30C19.7416 30 23.2534 28.5446 25.899 25.899C28.5446 23.2534 30 19.7416 30 16C30 12.2584 28.5446 8.74663 25.899 6.10101ZM24.7736 24.7736C22.4285 27.1187 19.3114 28.4091 16 28.4091C12.6886 28.4091 9.57155 27.1187 7.22643 24.7736C2.38889 19.936 2.38889 12.064 7.22643 7.22643C9.57155 4.88131 12.6886 3.59091 16 3.59091C19.3114 3.59091 22.4285 4.88131 24.7736 7.22643C29.6111 12.064 29.6111 19.936 24.7736 24.7736Z" fill="black" fill-opacity="0.5"/>
<path d="M15.9999 7.27545C15.5582 7.27545 15.2041 7.6296 15.2041 8.07124L15.2041 15.2042L8.07112 15.2042C7.62947 15.2042 7.27532 15.5584 7.27532 16C7.27532 16.4416 7.62947 16.7958 8.07112 16.7958L15.2041 16.7958L15.2041 23.9288C15.2041 24.3704 15.5582 24.7246 15.9999 24.7246C16.2165 24.7246 16.4207 24.6371 16.5624 24.4954C16.704 24.3537 16.7957 24.1538 16.7915 23.9329L16.7915 16.8L23.9245 16.8C24.1411 16.8 24.3453 16.7125 24.4869 16.5708C24.6328 16.425 24.7203 16.2292 24.7161 16.0083C24.7161 15.5667 24.3619 15.2125 23.9203 15.2125L16.7957 15.2042L16.7957 8.07125C16.7957 7.6296 16.4415 7.27545 15.9999 7.27545Z" fill="black" fill-opacity="0.5"/>
</svg>
