<svg width="24" height="24" viewBox="0 0 24 24" fill="none" xmlns="http://www.w3.org/2000/svg">
<path d="M11.9133 12.9319C11.9382 12.9319 11.963 12.9319 11.9929 12.9319C12.0028 12.9319 12.0127 12.9319 12.0227 12.9319C12.0376 12.9319 12.0575 12.9319 12.0724 12.9319C13.5286 12.907 14.7065 12.3951 15.5762 11.416C17.4896 9.25906 17.1716 5.5614 17.1368 5.20853C17.0125 2.55954 15.7601 1.29219 14.7263 0.700766C13.956 0.258439 13.0564 0.0198799 12.0525 0H12.0177C12.0127 0 12.0028 0 11.9978 0H11.968C11.4163 0 10.3329 0.0894595 9.29416 0.680886C8.25047 1.27231 6.97815 2.53966 6.85391 5.20853C6.81912 5.5614 6.50104 9.25906 8.41448 11.416C9.27925 12.3951 10.4571 12.907 11.9133 12.9319ZM8.18089 5.33278C8.18089 5.31787 8.18586 5.30296 8.18586 5.29302C8.34987 1.72955 10.8796 1.34686 11.963 1.34686H11.9829C11.9929 1.34686 12.0078 1.34686 12.0227 1.34686C13.3646 1.37668 15.6458 1.92338 15.7999 5.29302C15.7999 5.30793 15.7999 5.32284 15.8048 5.33278C15.8098 5.36757 16.1577 8.74715 14.5772 10.5264C13.951 11.2321 13.1161 11.58 12.0177 11.59C12.0078 11.59 12.0028 11.59 11.9929 11.59C11.9829 11.59 11.9779 11.59 11.968 11.59C10.8746 11.58 10.0347 11.2321 9.41344 10.5264C7.83796 8.75709 8.17592 5.3626 8.18089 5.33278Z" fill="black"/>
<path d="M22.206 19.0649C22.206 19.0599 22.206 19.0549 22.206 19.0499C22.206 19.0102 22.201 18.9704 22.201 18.9257C22.1712 17.9416 22.1066 15.6405 19.9496 14.905C19.9347 14.9 19.9148 14.895 19.8999 14.8901C17.6585 14.3185 15.7947 13.0263 15.7749 13.0114C15.4717 12.7977 15.0542 12.8723 14.8405 13.1754C14.6268 13.4786 14.7013 13.8961 15.0045 14.1098C15.089 14.1694 17.0671 15.5461 19.5421 16.1823C20.7001 16.5948 20.8293 17.8323 20.8641 18.9655C20.8641 19.0102 20.8641 19.0499 20.8691 19.0897C20.8741 19.537 20.8442 20.2278 20.7647 20.6254C19.9596 21.0827 16.8036 22.6631 12.0026 22.6631C7.22153 22.6631 4.04572 21.0777 3.23561 20.6205C3.15609 20.2229 3.1213 19.532 3.13124 19.0847C3.13124 19.045 3.13621 19.0052 3.13621 18.9605C3.171 17.8273 3.30022 16.5898 4.45823 16.1773C6.93327 15.5411 8.91132 14.1595 8.99581 14.1048C9.29898 13.8911 9.37353 13.4736 9.15982 13.1705C8.94611 12.8673 8.52864 12.7927 8.22547 13.0065C8.20559 13.0214 6.35179 14.3136 4.10039 14.8851C4.08051 14.8901 4.0656 14.895 4.05069 14.9C1.89372 15.6405 1.82911 17.9416 1.79929 18.9207C1.79929 18.9655 1.79929 19.0052 1.79432 19.045C1.79432 19.0499 1.79432 19.0549 1.79432 19.0599C1.78935 19.3183 1.78438 20.6453 2.04779 21.3113C2.09749 21.4405 2.18695 21.5498 2.30623 21.6244C2.45533 21.7238 6.02874 24 12.0076 24C17.9865 24 21.5599 21.7188 21.709 21.6244C21.8233 21.5498 21.9177 21.4405 21.9674 21.3113C22.2159 20.6503 22.211 19.3233 22.206 19.0649Z" fill="black"/>
</svg>
