<svg width="32" height="32" viewBox="0 0 32 32" fill="none" xmlns="http://www.w3.org/2000/svg">
<path d="M2.28117 14.3716L14.647 4.17616C14.8765 3.98672 15.1979 3.94653 15.4676 4.07283C15.7373 4.19912 15.9094 4.47467 15.9094 4.77319V10.1465C21.9116 10.3646 26.0373 12.4829 28.1834 16.4497C30.0311 19.8712 30.0139 23.9241 29.9967 26.605C29.9967 26.8232 29.9967 27.0298 29.9967 27.225C29.9967 27.5752 29.7614 27.8852 29.4171 27.977C29.354 27.9943 29.2852 28 29.222 28C28.9466 28 28.6884 27.8565 28.5507 27.6096C24.3618 20.2214 20.9131 19.8654 15.9151 19.8482V25.2043C15.9151 25.5028 15.743 25.7784 15.4676 25.9046C15.1921 26.0309 14.8765 25.9908 14.6413 25.8013L2.28117 15.5714C2.10329 15.4222 2 15.204 2 14.9744C2 14.7448 2.10329 14.5209 2.28117 14.3716ZM14.3601 23.5567V19.0732C14.3601 18.8666 14.4404 18.6714 14.5896 18.5279C14.7331 18.3844 14.9339 18.2982 15.1347 18.2982C18.2563 18.2982 20.6492 18.3844 22.9731 19.4693C24.9815 20.4051 26.7202 21.9952 28.4359 24.4924C28.367 22.2134 28.0687 19.4923 26.8235 17.1903C24.8495 13.5392 21.0279 11.7309 15.1347 11.6792C14.7101 11.6735 14.3658 11.3291 14.3658 10.9042V6.41503L3.9969 14.9744L14.3601 23.5567Z" fill="#376A98" fill-opacity="0.5"/>
</svg>
