<svg width="64" height="64" viewBox="0 0 64 64" fill="none" xmlns="http://www.w3.org/2000/svg">
<circle cx="32" cy="32" r="25" fill="#376A98"/>
<circle cx="32" cy="32" r="31.5" stroke="#376A98" stroke-opacity="0.5"/>
<g clip-path="url(#clip0)">
<path d="M41.2901 35.8229C40.635 35.1407 39.8448 34.776 39.0073 34.776C38.1766 34.776 37.3797 35.134 36.6975 35.8161L34.5633 37.9436C34.3877 37.849 34.2121 37.7612 34.0433 37.6734C33.8001 37.5519 33.5705 37.437 33.3747 37.3155C31.3755 36.0457 29.5587 34.3911 27.8163 32.2501C26.972 31.183 26.4047 30.2847 25.9927 29.373C26.5465 28.8664 27.0598 28.3396 27.5596 27.8331C27.7487 27.644 27.9378 27.4481 28.1269 27.259C29.5452 25.8407 29.5452 24.0037 28.1269 22.5854L26.2831 20.7416C26.0738 20.5322 25.8577 20.3161 25.655 20.1C25.2498 19.6812 24.8243 19.249 24.3853 18.8438C23.7302 18.1954 22.9468 17.851 22.1228 17.851C21.2988 17.851 20.5019 18.1954 19.8265 18.8438C19.8197 18.8505 19.8197 18.8505 19.813 18.8573L17.5167 21.1738C16.6522 22.0383 16.1592 23.0919 16.0511 24.3144C15.889 26.2865 16.4698 28.1235 16.9156 29.3257C18.0097 32.2771 19.6441 35.0124 22.0823 37.9436C25.0404 41.4758 28.5997 44.2651 32.6655 46.2305C34.2189 46.9667 36.2923 47.8379 38.6089 47.9865C38.7507 47.9933 38.8993 48 39.0344 48C40.5945 48 41.9047 47.4394 42.9313 46.3251C42.9381 46.3116 42.9516 46.3048 42.9583 46.2913C43.3095 45.8658 43.7147 45.4808 44.1402 45.0689C44.4307 44.7919 44.7278 44.5015 45.0182 44.1976C45.6869 43.502 46.0381 42.6915 46.0381 41.8608C46.0381 41.0233 45.6801 40.2196 44.998 39.5442L41.2901 35.8229ZM43.708 42.9346C43.7012 42.9346 43.7012 42.9414 43.708 42.9346C43.4446 43.2183 43.1744 43.475 42.884 43.7586C42.445 44.1773 41.9993 44.6163 41.5805 45.1094C40.8984 45.8388 40.0947 46.1832 39.0411 46.1832C38.9398 46.1832 38.8317 46.1832 38.7304 46.1765C36.7245 46.0482 34.8605 45.2647 33.4625 44.5961C29.6398 42.7455 26.2831 40.1183 23.4938 36.7887C21.1908 34.0128 19.6509 31.4464 18.6311 28.6908C18.003 27.0091 17.7733 25.6989 17.8746 24.463C17.9422 23.6728 18.2461 23.0176 18.8067 22.4571L21.1097 20.154C21.4407 19.8433 21.7919 19.6745 22.1363 19.6745C22.5618 19.6745 22.9062 19.9311 23.1224 20.1473C23.1291 20.154 23.1359 20.1608 23.1426 20.1675C23.5546 20.5525 23.9463 20.951 24.3583 21.3765C24.5677 21.5926 24.7838 21.8087 24.9999 22.0316L26.8437 23.8754C27.5596 24.5913 27.5596 25.2531 26.8437 25.9691C26.6478 26.1649 26.4587 26.3608 26.2629 26.5499C25.6956 27.1307 25.1553 27.671 24.5677 28.1978C24.5542 28.2113 24.5407 28.2181 24.5339 28.2316C23.9531 28.8124 24.0611 29.3797 24.1827 29.7647C24.1895 29.785 24.1962 29.8052 24.203 29.8255C24.6825 30.9871 25.3579 32.0813 26.3844 33.3847L26.3912 33.3915C28.2553 35.6878 30.2206 37.4776 32.3886 38.8486C32.6655 39.0242 32.9492 39.166 33.2193 39.3011C33.4625 39.4227 33.6921 39.5375 33.8879 39.659C33.915 39.6726 33.942 39.6928 33.969 39.7063C34.1986 39.8211 34.4147 39.8752 34.6376 39.8752C35.1982 39.8752 35.5494 39.524 35.6642 39.4091L37.974 37.0993C38.2036 36.8697 38.5683 36.5928 38.9938 36.5928C39.4126 36.5928 39.757 36.8562 39.9664 37.0858C39.9731 37.0926 39.9731 37.0926 39.9799 37.0993L43.7012 40.8207C44.3969 41.5096 44.3969 42.2187 43.708 42.9346Z" fill="white"/>
<path d="M33.2935 23.6119C35.063 23.9091 36.6704 24.7466 37.9536 26.0298C39.2368 27.313 40.0675 28.9204 40.3715 30.6899C40.4457 31.1357 40.8307 31.4464 41.2697 31.4464C41.3237 31.4464 41.371 31.4396 41.4251 31.4329C41.9248 31.3518 42.2558 30.879 42.1747 30.3793C41.81 28.2383 40.7969 26.2864 39.2503 24.7398C37.7037 23.1932 35.7519 22.1801 33.6109 21.8154C33.1111 21.7344 32.6451 22.0653 32.5573 22.5583C32.4695 23.0514 32.7937 23.5309 33.2935 23.6119Z" fill="white"/>
<path d="M47.9628 30.1159C47.3617 26.5904 45.7003 23.3823 43.1473 20.8294C40.5944 18.2764 37.3863 16.615 33.8608 16.0139C33.3678 15.9261 32.9018 16.2638 32.814 16.7568C32.7329 17.2566 33.0639 17.7226 33.5637 17.8104C36.7109 18.344 39.5813 19.8366 41.8641 22.1126C44.1469 24.3954 45.6327 27.2658 46.1663 30.4131C46.2406 30.8588 46.6255 31.1695 47.0645 31.1695C47.1186 31.1695 47.1659 31.1627 47.2199 31.156C47.7129 31.0817 48.0506 30.6089 47.9628 30.1159Z" fill="white"/>
</g>
<defs>
<clipPath id="clip0">
<rect width="32" height="32" fill="white" transform="translate(16 16)"/>
</clipPath>
</defs>
</svg>
