<svg width="64" height="64" viewBox="0 0 64 64" fill="none" xmlns="http://www.w3.org/2000/svg">
<g opacity="0.5">
<circle cx="32" cy="32" r="25" fill="#376A98"/>
<circle cx="32" cy="32" r="31.5" stroke="#376A98" stroke-opacity="0.5"/>
<g clip-path="url(#clip0)">
<path d="M41.2902 35.8229C40.6351 35.1407 39.8449 34.776 39.0075 34.776C38.1767 34.776 37.3798 35.134 36.6977 35.8161L34.5634 37.9436C34.3878 37.849 34.2122 37.7612 34.0434 37.6734C33.8003 37.5518 33.5706 37.437 33.3748 37.3155C31.3756 36.0457 29.5589 34.3911 27.8164 32.2501C26.9722 31.183 26.4048 30.2847 25.9928 29.373C26.5467 28.8664 27.06 28.3396 27.5597 27.8331C27.7488 27.644 27.9379 27.4481 28.1271 27.259C29.5454 25.8407 29.5454 24.0037 28.1271 22.5854L26.2833 20.7416C26.0739 20.5322 25.8578 20.3161 25.6552 20.1C25.2499 19.6812 24.8244 19.249 24.3854 18.8438C23.7303 18.1954 22.9469 17.851 22.1229 17.851C21.2989 17.851 20.502 18.1954 19.8266 18.8438C19.8199 18.8505 19.8199 18.8505 19.8131 18.8573L17.5168 21.1738C16.6523 22.0383 16.1593 23.0919 16.0512 24.3144C15.8891 26.2865 16.47 28.1235 16.9157 29.3257C18.0098 32.2771 19.6443 35.0124 22.0824 37.9436C25.0406 41.4758 28.5998 44.2651 32.6656 46.2305C34.219 46.9667 36.2924 47.8379 38.609 47.9865C38.7508 47.9932 38.8994 48 39.0345 48C40.5946 48 41.9048 47.4394 42.9314 46.3251C42.9382 46.3115 42.9517 46.3048 42.9584 46.2913C43.3096 45.8658 43.7149 45.4808 44.1404 45.0688C44.4308 44.7919 44.7279 44.5015 45.0184 44.1976C45.687 43.502 46.0382 42.6915 46.0382 41.8608C46.0382 41.0233 45.6802 40.2196 44.9981 39.5442L41.2902 35.8229ZM43.7081 42.9346C43.7014 42.9346 43.7014 42.9414 43.7081 42.9346C43.4447 43.2183 43.1746 43.4749 42.8841 43.7586C42.4452 44.1773 41.9994 44.6163 41.5807 45.1094C40.8985 45.8388 40.0948 46.1832 39.0412 46.1832C38.9399 46.1832 38.8319 46.1832 38.7306 46.1765C36.7247 46.0481 34.8606 45.2647 33.4626 44.5961C29.6399 42.7455 26.2833 40.1183 23.4939 36.7887C21.1909 34.0128 19.651 31.4464 18.6312 28.6908C18.0031 27.0091 17.7735 25.6989 17.8748 24.4629C17.9423 23.6727 18.2462 23.0176 18.8068 22.4571L21.1098 20.154C21.4408 19.8433 21.792 19.6745 22.1364 19.6745C22.5619 19.6745 22.9064 19.9311 23.1225 20.1473C23.1292 20.154 23.136 20.1608 23.1427 20.1675C23.5547 20.5525 23.9464 20.951 24.3584 21.3764C24.5678 21.5926 24.7839 21.8087 25 22.0316L26.8438 23.8754C27.5597 24.5913 27.5597 25.2531 26.8438 25.969C26.648 26.1649 26.4589 26.3608 26.263 26.5499C25.6957 27.1307 25.1554 27.671 24.5678 28.1978C24.5543 28.2113 24.5408 28.2181 24.534 28.2316C23.9532 28.8124 24.0613 29.3797 24.1828 29.7647C24.1896 29.7849 24.1963 29.8052 24.2031 29.8255C24.6826 30.9871 25.358 32.0812 26.3846 33.3847L26.3913 33.3915C28.2554 35.6878 30.2207 37.4775 32.3887 38.8486C32.6656 39.0242 32.9493 39.166 33.2194 39.3011C33.4626 39.4226 33.6922 39.5375 33.8881 39.659C33.9151 39.6725 33.9421 39.6928 33.9691 39.7063C34.1987 39.8211 34.4149 39.8752 34.6377 39.8752C35.1983 39.8752 35.5495 39.524 35.6643 39.4091L37.9741 37.0993C38.2038 36.8697 38.5685 36.5928 38.9939 36.5928C39.4127 36.5928 39.7571 36.8562 39.9665 37.0858C39.9733 37.0926 39.9733 37.0926 39.98 37.0993L43.7014 40.8207C44.397 41.5096 44.397 42.2187 43.7081 42.9346Z" fill="white"/>
<path d="M33.2937 23.6119C35.0632 23.9091 36.6706 24.7466 37.9538 26.0298C39.2371 27.313 40.0678 28.9204 40.3717 30.6899C40.446 31.1357 40.831 31.4464 41.27 31.4464C41.324 31.4464 41.3713 31.4396 41.4253 31.4329C41.9251 31.3518 42.256 30.8791 42.175 30.3793C41.8103 28.2383 40.7972 26.2865 39.2506 24.7398C37.7039 23.1932 35.7521 22.1801 33.6111 21.8154C33.1114 21.7344 32.6453 22.0653 32.5575 22.5583C32.4697 23.0514 32.7939 23.5309 33.2937 23.6119Z" fill="white"/>
<path d="M47.963 30.1159C47.3619 26.5904 45.7005 23.3823 43.1475 20.8294C40.5946 18.2764 37.3865 16.615 33.861 16.0139C33.368 15.9261 32.902 16.2638 32.8142 16.7568C32.7332 17.2566 33.0641 17.7226 33.5639 17.8104C36.7112 18.344 39.5815 19.8366 41.8643 22.1126C44.1471 24.3954 45.633 27.2658 46.1665 30.413C46.2408 30.8588 46.6258 31.1695 47.0648 31.1695C47.1188 31.1695 47.1661 31.1627 47.2201 31.156C47.7131 31.0817 48.0508 30.6089 47.963 30.1159Z" fill="white"/>
</g>
</g>
<defs>
<clipPath id="clip0">
<rect width="32" height="32" fill="white" transform="translate(16 16)"/>
</clipPath>
</defs>
</svg>
