<svg width="24" height="24" viewBox="0 0 24 24" fill="none" xmlns="http://www.w3.org/2000/svg">
<path d="M20.4848 3.51515C18.2172 1.24747 15.2071 0 12 0C8.79293 0 5.78283 1.24747 3.51515 3.51515C1.24747 5.78283 0 8.79293 0 12C0 15.2071 1.24747 18.2172 3.51515 20.4848C5.78283 22.7525 8.79293 24 12 24C15.2071 24 18.2172 22.7525 20.4848 20.4848C22.7525 18.2172 24 15.2071 24 12C24 8.79293 22.7525 5.78283 20.4848 3.51515ZM19.5202 19.5202C17.5101 21.5303 14.8384 22.6364 12 22.6364C9.16162 22.6364 6.4899 21.5303 4.4798 19.5202C0.333333 15.3737 0.333333 8.62626 4.4798 4.4798C6.4899 2.4697 9.16162 1.36364 12 1.36364C14.8384 1.36364 17.5101 2.4697 19.5202 4.4798C23.6667 8.62626 23.6667 15.3737 19.5202 19.5202Z" fill="black"/>
<path fill-rule="evenodd" clip-rule="evenodd" d="M12 3C11.5858 3 11.25 3.33579 11.25 3.75V12C11.25 12.4142 11.5858 12.75 12 12.75H18C18.4142 12.75 18.75 12.4142 18.75 12C18.75 11.5858 18.4142 11.25 18 11.25H12.75V3.75C12.75 3.33579 12.4142 3 12 3Z" fill="black"/>
</svg>
