<svg width="16" height="16" viewBox="0 0 16 16" fill="none" xmlns="http://www.w3.org/2000/svg">
<path fill-rule="evenodd" clip-rule="evenodd" d="M0.928632 0.928927C0.538112 1.31945 0.538112 1.95261 0.928632 2.34314L6.58563 8.0002L0.928972 13.6568C0.538442 14.0474 0.538442 14.6805 0.928972 15.071C1.31949 15.4616 1.95266 15.4616 2.34318 15.071L7.99983 9.4144L13.6565 15.0711C14.047 15.4616 14.6802 15.4616 15.0707 15.0711C15.4613 14.6805 15.4613 14.0474 15.0707 13.6568L9.41403 8.0002L15.0711 2.34312C15.4616 1.9526 15.4616 1.31943 15.0711 0.928907C14.6805 0.538387 14.0474 0.538387 13.6569 0.928907L7.99983 6.5859L2.34285 0.928927C1.95232 0.538397 1.31916 0.538397 0.928632 0.928927Z" fill="#E5E5E5"/>
</svg>
