<svg width="44" height="44" viewBox="0 0 44 44" fill="none" xmlns="http://www.w3.org/2000/svg">
<circle cx="22" cy="22" r="12" fill="#C4C4C4"/>
<path fill-rule="evenodd" clip-rule="evenodd" d="M14.9286 14.9289C14.5381 15.3194 14.5381 15.9526 14.9286 16.3431L20.5856 22.0002L14.929 27.6568C14.5384 28.0474 14.5384 28.6805 14.929 29.071C15.3195 29.4616 15.9527 29.4616 16.3432 29.071L21.9998 23.4144L27.6565 29.0711C28.047 29.4616 28.6802 29.4616 29.0707 29.0711C29.4613 28.6805 29.4613 28.0474 29.0707 27.6568L23.414 22.0002L29.0711 16.3431C29.4616 15.9526 29.4616 15.3194 29.0711 14.9289C28.6805 14.5384 28.0474 14.5384 27.6569 14.9289L21.9998 20.5859L16.3429 14.9289C15.9523 14.5384 15.3192 14.5384 14.9286 14.9289Z" fill="white"/>
</svg>
