<svg width="24" height="24" viewBox="0 0 24 24" fill="none" xmlns="http://www.w3.org/2000/svg">
<path d="M23.8996 14.6511L19.8561 7.91131L23.4849 6.9033C23.8591 6.79937 24.0781 6.4118 23.9743 6.03764C23.8703 5.66348 23.4826 5.44438 23.1086 5.54835L18.5977 6.80134L18.5968 6.80162L12.7032 8.43871V0.703136C12.7032 0.314817 12.3883 0 12 0C11.6117 0 11.2969 0.314817 11.2969 0.703136V8.82933L5.04176 10.5668L5.04078 10.5671L0.515138 11.8242C0.140935 11.9281 -0.0780654 12.3157 0.0258096 12.6898C0.112294 13.001 0.394903 13.2049 0.702872 13.2049C0.765169 13.2049 0.828544 13.1966 0.89145 13.1791L3.71267 12.3954L0.100481 18.4166C0.0349502 18.5259 0.000262728 18.6509 0.000262728 18.7783C0.000262728 21.6576 2.34275 24 5.222 24C8.10134 24 10.4438 21.6576 10.4438 18.7783C10.4438 18.6509 10.4091 18.5259 10.3436 18.4166L6.30003 11.6768L17.2686 8.63001L13.6565 14.6511C13.5909 14.7603 13.5562 14.8854 13.5562 15.0128C13.5562 17.8921 15.8987 20.2345 18.778 20.2345C20.1727 20.2345 21.484 19.6914 22.4704 18.7051C23.4567 17.7187 23.9998 16.4075 23.9997 15.0127C23.9998 14.8853 23.9652 14.7603 23.8996 14.6511ZM8.49894 18.0751H1.94515L5.222 12.6132L8.49894 18.0751ZM18.778 8.8477L22.055 14.3096H15.5011L18.778 8.8477Z" fill="#376A98"/>
</svg>
