<svg width="32" height="32" viewBox="0 0 32 32" fill="none" xmlns="http://www.w3.org/2000/svg">
<path d="M29.3421 4.60526H22.6842V3.51974C22.6842 1.57895 21.1053 0 19.1645 0H12.8356C10.8948 0 9.31583 1.57895 9.31583 3.51974V4.60526H2.65793C2.16451 4.60526 1.76978 5 1.76978 5.49342C1.76978 5.98684 2.16451 6.38158 2.65793 6.38158H4.2632V27.25C4.2632 29.8684 6.39477 32 9.0132 32H22.9869C25.6053 32 27.7369 29.8684 27.7369 27.25V6.38158H29.3421C29.8356 6.38158 30.2303 5.98684 30.2303 5.49342C30.2303 5 29.8356 4.60526 29.3421 4.60526ZM11.0921 3.51974C11.0921 2.55921 11.875 1.77632 12.8356 1.77632H19.1645C20.125 1.77632 20.9079 2.55921 20.9079 3.51974V4.60526H11.0921V3.51974ZM25.9606 27.25C25.9606 28.8882 24.625 30.2237 22.9869 30.2237H9.0132C7.37504 30.2237 6.03951 28.8882 6.03951 27.25V6.38158H25.9671V27.25H25.9606Z" fill="#376A98"/>
<path d="M16 27.0395C16.4934 27.0395 16.8881 26.6447 16.8881 26.1513V10.454C16.8881 9.96053 16.4934 9.5658 16 9.5658C15.5066 9.5658 15.1118 9.96053 15.1118 10.454V26.1447C15.1118 26.6382 15.5066 27.0395 16 27.0395Z" fill="#376A98"/>
<path d="M10.2041 26.0593C10.6975 26.0593 11.0922 25.6646 11.0922 25.1711V11.4277C11.0922 10.9343 10.6975 10.5396 10.2041 10.5396C9.71065 10.5396 9.31592 10.9343 9.31592 11.4277V25.1711C9.31592 25.6646 9.71723 26.0593 10.2041 26.0593Z" fill="#376A98"/>
<path d="M21.7961 26.0593C22.2895 26.0593 22.6843 25.6646 22.6843 25.1711V11.4277C22.6843 10.9343 22.2895 10.5396 21.7961 10.5396C21.3027 10.5396 20.908 10.9343 20.908 11.4277V25.1711C20.908 25.6646 21.3027 26.0593 21.7961 26.0593Z" fill="#376A98"/>
</svg>
