<svg width="24" height="22" viewBox="0 0 24 22" fill="none" xmlns="http://www.w3.org/2000/svg">
<path d="M22.0616 2.409C20.8049 1.15227 19.1411 0.465398 17.3654 0.465398C15.5897 0.465398 13.9209 1.15736 12.6641 2.41409L12.0078 3.07044L11.3412 2.40391C10.0845 1.14719 8.41057 0.450134 6.63487 0.450134C4.86425 0.450134 3.1954 1.1421 1.94376 2.39374C0.687027 3.65047 -0.00493804 5.31932 0.000149931 7.09502C0.000149931 8.87072 0.697202 10.5345 1.95393 11.7912L11.5092 21.3464C11.6414 21.4787 11.8195 21.5499 11.9925 21.5499C12.1655 21.5499 12.3436 21.4838 12.4759 21.3515L22.0514 11.8116C23.3082 10.5548 24.0001 8.88598 24.0001 7.11028C24.0052 5.33458 23.3183 3.66573 22.0616 2.409Z" fill="#376A98"/>
</svg>
