<svg width="24" height="24" viewBox="0 0 24 24" fill="none" xmlns="http://www.w3.org/2000/svg">
<path d="M23.791 22.7761L17.9587 16.9437C19.5232 15.145 20.4704 12.7982 20.4704 10.2333C20.4704 4.58714 15.878 0 10.2372 0C4.59105 0 0.00390625 4.59246 0.00390625 10.2333C0.00390625 15.8741 4.59637 20.4665 10.2372 20.4665C12.8021 20.4665 15.1489 19.5193 16.9476 17.9548L22.78 23.7871C22.9183 23.9255 23.1046 24 23.2855 24C23.4664 24 23.6527 23.9308 23.791 23.7871C24.0678 23.5104 24.0678 23.0528 23.791 22.7761ZM1.43539 10.2333C1.43539 5.38004 5.38395 1.43681 10.2318 1.43681C15.0851 1.43681 19.0283 5.38537 19.0283 10.2333C19.0283 15.0812 15.0851 19.035 10.2318 19.035C5.38395 19.035 1.43539 15.0865 1.43539 10.2333Z" fill="black"/>
</svg>
