<svg width="28" height="28" viewBox="0 0 28 28" fill="none" xmlns="http://www.w3.org/2000/svg">
<g clip-path="url(#clip0)">
<path d="M6.4127 5.55249C10.5466 1.81314 16.7331 1.75596 20.9241 5.16941L17.6022 5.29519C17.1733 5.31235 16.8417 5.66684 16.8589 6.09567C16.876 6.51306 17.2191 6.83896 17.6307 6.83896C17.6422 6.83896 17.6479 6.83896 17.6593 6.83896L22.7595 6.65028C23.1769 6.63313 23.5028 6.29579 23.5028 5.8784V5.82122C23.5028 5.80978 23.5028 5.80407 23.5028 5.79263V5.78691L23.3141 0.743933C23.2969 0.315108 22.9367 -0.0165165 22.5136 0.000636484C22.0848 0.0177895 21.7532 0.372285 21.7703 0.80111L21.8904 3.96298C19.8149 2.26483 17.2591 1.28139 14.5261 1.14417C11.1412 0.97264 7.88785 2.13333 5.3778 4.40896C1.92434 7.53652 0.460616 12.2936 1.55841 16.822C1.64417 17.1765 1.95864 17.4109 2.30742 17.4109C2.37031 17.4109 2.42749 17.4052 2.49038 17.3881C2.90206 17.2851 3.15935 16.8678 3.05643 16.4561C2.09587 12.4766 3.37662 8.29697 6.4127 5.55249Z" fill="#F07C00"/>
<path d="M26.4416 11.1786C26.3387 10.7669 25.9213 10.5096 25.5096 10.6125C25.0979 10.7155 24.8406 11.1328 24.9435 11.5445C25.9098 15.524 24.6234 19.7036 21.5873 22.4481C19.4546 24.3749 16.7787 25.3241 14.1143 25.3241C11.5699 25.3241 9.0313 24.4607 6.98438 22.7568L10.3464 22.4538C10.7695 22.4138 11.0839 22.0421 11.0439 21.6133C11.0039 21.1845 10.6322 20.8757 10.2034 20.9158L5.12042 21.3732C4.69732 21.4132 4.38284 21.7848 4.42287 22.2137L4.88028 27.2967C4.91459 27.6969 5.25193 27.9999 5.64645 27.9999C5.66932 27.9999 5.69219 27.9999 5.71506 27.9942C6.13817 27.9542 6.45264 27.5825 6.41261 27.1537L6.13817 24.0605C8.21368 25.7415 10.758 26.7192 13.4739 26.8564C13.6912 26.8678 13.9085 26.8736 14.12 26.8736C17.2704 26.8736 20.2665 25.7186 22.6222 23.5916C26.0756 20.4641 27.5394 15.7127 26.4416 11.1786Z" fill="#F07C00"/>
</g>
<defs>
<clipPath id="clip0">
<rect width="28" height="28" fill="white"/>
</clipPath>
</defs>
</svg>
