<svg width="32" height="32" viewBox="0 0 32 32" fill="none" xmlns="http://www.w3.org/2000/svg">
<path d="M14.3716 2.28117L4.17616 14.647C3.98672 14.8765 3.94653 15.1979 4.07283 15.4676C4.19912 15.7373 4.47467 15.9094 4.77319 15.9094H10.1465C10.3646 21.9116 12.4829 26.0373 16.4497 28.1834C19.8712 30.0311 23.9241 30.0139 26.605 29.9967C26.8232 29.9967 27.0298 29.9967 27.225 29.9967C27.5752 29.9967 27.8852 29.7614 27.977 29.4171C27.9943 29.354 28 29.2852 28 29.222C28 28.9466 27.8565 28.6884 27.6096 28.5507C20.2214 24.3618 19.8654 20.9131 19.8482 15.9151H25.2043C25.5028 15.9151 25.7784 15.743 25.9046 15.4676C26.0309 15.1921 25.9908 14.8765 25.8013 14.6413L15.5714 2.28117C15.4222 2.10329 15.204 2 14.9744 2C14.7448 2 14.5209 2.10329 14.3716 2.28117ZM23.5567 14.3601H19.0732C18.8666 14.3601 18.6714 14.4404 18.5279 14.5896C18.3844 14.7331 18.2982 14.9339 18.2982 15.1347C18.2982 18.2563 18.3844 20.6492 19.4693 22.9731C20.4051 24.9815 21.9952 26.7202 24.4924 28.4359C22.2134 28.367 19.4923 28.0687 17.1903 26.8235C13.5392 24.8495 11.7309 21.0279 11.6792 15.1347C11.6735 14.7101 11.3291 14.3658 10.9042 14.3658H6.41503L14.9744 3.9969L23.5567 14.3601Z" fill="#376A98" fill-opacity="0.5"/>
</svg>
