<svg width="24" height="24" viewBox="0 0 24 24" fill="none" xmlns="http://www.w3.org/2000/svg">
<path d="M19.0168 15.4186C17.6364 15.4186 16.4055 16.0764 15.6181 17.093L9.02511 13.4103C9.17959 12.9668 9.26431 12.4884 9.26431 11.995C9.26431 11.4967 9.17959 11.0233 9.02012 10.5748L15.6082 6.89701C16.3906 7.9186 17.6264 8.5814 19.0118 8.5814C21.3739 8.5814 23.3025 6.65781 23.3025 4.2907C23.3025 1.92359 21.3789 0 19.0118 0C16.6447 0 14.7211 1.92359 14.7211 4.2907C14.7211 4.78904 14.8058 5.26744 14.9653 5.71096L8.38225 9.3887C7.59986 8.36213 6.36398 7.70432 4.97859 7.70432C2.61647 7.70432 0.687897 9.62791 0.687897 11.995C0.687897 14.3621 2.61647 16.2857 4.98358 16.2857C6.36896 16.2857 7.60484 15.6229 8.39222 14.5963L14.9803 18.2791C14.8208 18.7276 14.7311 19.211 14.7311 19.7093C14.7311 22.0714 16.6547 24 19.0218 24C21.3889 24 23.3125 22.0764 23.3125 19.7093C23.3125 17.3422 21.3839 15.4186 19.0168 15.4186ZM19.0168 1.3505C20.6414 1.3505 21.962 2.6711 21.962 4.29568C21.962 5.92027 20.6414 7.24086 19.0168 7.24086C17.3922 7.24086 16.0716 5.92027 16.0716 4.29568C16.0716 2.6711 17.3972 1.3505 19.0168 1.3505ZM4.98358 14.9402C3.35899 14.9402 2.0384 13.6196 2.0384 11.995C2.0384 10.3704 3.35899 9.04983 4.98358 9.04983C6.60816 9.04983 7.92876 10.3704 7.92876 11.995C7.92876 13.6196 6.60318 14.9402 4.98358 14.9402ZM19.0168 22.6495C17.3922 22.6495 16.0716 21.3289 16.0716 19.7043C16.0716 18.0797 17.3922 16.7591 19.0168 16.7591C20.6414 16.7591 21.962 18.0797 21.962 19.7043C21.962 21.3289 20.6414 22.6495 19.0168 22.6495Z" fill="#376A98"/>
</svg>
