<svg width="12" height="12" viewBox="0 0 12 12" fill="none" xmlns="http://www.w3.org/2000/svg">
<g clip-path="url(#clip0)">
<path fill-rule="evenodd" clip-rule="evenodd" d="M6 0.257477C5.74452 0.257525 5.51459 0.409587 5.41362 0.645029L4.04405 3.8501L0.579969 4.16459C0.325446 4.18812 0.110475 4.36015 0.0314629 4.60314C-0.0475491 4.84612 0.0254203 5.11264 0.217961 5.28064L2.83598 7.57666L2.06399 10.9773C2.0075 11.2273 2.10454 11.4858 2.31201 11.6358C2.42352 11.7163 2.55399 11.7573 2.68555 11.7573C2.79899 11.7573 2.91151 11.7268 3.0125 11.6663L6 9.88081V0.257477Z" fill="#FFC107"/>
<path d="M11.7817 5.2811L9.16372 7.57666L11.7817 5.2811ZM11.7817 5.2811C11.9743 5.11264 12.0478 4.84658 11.9688 4.60314L11.7817 5.2811ZM11.4939 4.75664L11.4941 4.75719C11.5115 4.8106 11.4956 4.86839 11.4531 4.90553L11.4527 4.90588L8.83471 7.20144L8.61128 7.39735L8.67706 7.68714L9.44899 11.0875C9.4615 11.1427 9.44025 11.1988 9.39484 11.2317L9.39479 11.2317C9.34937 11.2646 9.29042 11.2667 9.2439 11.2387L9.24273 11.238L6.25621 9.45242L6.00017 9.29933L5.74411 9.45237L2.75648 11.238L2.75626 11.2381C2.73253 11.2523 2.70853 11.2583 2.68555 11.2583C2.65842 11.2583 2.63036 11.2501 2.60436 11.2313C2.55981 11.1991 2.5381 11.1436 2.55071 11.0874C2.55073 11.0874 2.55074 11.0873 2.55075 11.0873L3.32263 7.68714L3.38841 7.39738L3.16502 7.20147L0.547005 4.90545L0.546059 4.90463C0.504938 4.86875 0.488553 4.81123 0.50604 4.75745C0.523459 4.70388 0.569954 4.66677 0.62567 4.66153C0.625749 4.66152 0.625829 4.66151 0.625908 4.6615L4.08917 4.34709L4.38587 4.32015L4.50294 4.04619L5.87226 0.841717C5.8723 0.841636 5.87233 0.841554 5.87237 0.841472C5.89511 0.788708 5.9452 0.756513 6.00012 0.756513C6.0552 0.756513 6.10534 0.788875 6.128 0.8412C6.12805 0.841318 6.1281 0.841437 6.12815 0.841556L7.49729 4.04616L7.61435 4.32015L7.91107 4.34709L11.3746 4.66158L11.3749 4.66161C11.4304 4.66661 11.4768 4.70377 11.4939 4.75664Z" stroke="#FFC107" stroke-width="0.998073"/>
</g>
<defs>
<clipPath id="clip0">
<rect width="12" height="12" fill="white"/>
</clipPath>
</defs>
</svg>
