<svg width="12" height="12" viewBox="0 0 12 12" fill="none" xmlns="http://www.w3.org/2000/svg">
<g clip-path="url(#clip0)">
<path d="M11.9688 4.60314C11.8902 4.36016 11.6747 4.18758 11.4197 4.1646L7.9562 3.8501L6.58662 0.644488C6.48564 0.409557 6.25565 0.257484 6.00012 0.257484C5.74459 0.257484 5.51461 0.409557 5.41362 0.645037L4.04405 3.8501L0.579969 4.1646C0.325446 4.18812 0.110475 4.36016 0.0314629 4.60314C-0.0475491 4.84613 0.0254203 5.11265 0.217961 5.28065L2.83598 7.57667L2.06399 10.9773C2.0075 11.2273 2.10454 11.4858 2.31201 11.6358C2.42352 11.7163 2.55399 11.7573 2.68555 11.7573C2.79899 11.7573 2.91151 11.7268 3.0125 11.6663L6.00012 9.88074L8.98665 11.6663C9.20519 11.7978 9.48068 11.7858 9.68769 11.6358C9.89524 11.4853 9.9922 11.2268 9.93571 10.9773L9.16372 7.57667L11.7817 5.28111C11.9743 5.11265 12.0478 4.84659 11.9688 4.60314Z" fill="#FFC107"/>
</g>
<defs>
<clipPath id="clip0">
<rect width="12" height="12" fill="white"/>
</clipPath>
</defs>
</svg>
