<svg width="12" height="12" viewBox="0 0 12 12" fill="none" xmlns="http://www.w3.org/2000/svg">
<path d="M11.7817 5.28111L9.16372 7.57667L11.7817 5.28111ZM11.7817 5.28111C11.9743 5.11265 12.0478 4.84659 11.9688 4.60314L11.7817 5.28111ZM11.4939 4.75665L11.4941 4.7572C11.5115 4.8106 11.4956 4.8684 11.4531 4.90553L11.4527 4.90588L8.83471 7.20144L8.61128 7.39736L8.67706 7.68714L9.44899 11.0875C9.4615 11.1427 9.44025 11.1988 9.39484 11.2317L9.39479 11.2317C9.34937 11.2646 9.29042 11.2667 9.2439 11.2387L9.24273 11.238L6.25621 9.45242L6.00017 9.29934L5.74411 9.45238L2.75648 11.238L2.75626 11.2381C2.73253 11.2523 2.70853 11.2583 2.68555 11.2583C2.65842 11.2583 2.63036 11.2501 2.60436 11.2313C2.55981 11.1991 2.5381 11.1436 2.55071 11.0875C2.55073 11.0874 2.55074 11.0873 2.55075 11.0873L3.32263 7.68714L3.38841 7.39739L3.16502 7.20148L0.547005 4.90546L0.546059 4.90463C0.504938 4.86875 0.488553 4.81124 0.50604 4.75746C0.523459 4.70389 0.569954 4.66678 0.62567 4.66153C0.625749 4.66152 0.625829 4.66152 0.625908 4.66151L4.08917 4.34709L4.38587 4.32016L4.50294 4.04619L5.87226 0.841723C5.8723 0.841641 5.87233 0.84156 5.87237 0.841478C5.89511 0.788714 5.9452 0.756519 6.00012 0.756519C6.0552 0.756519 6.10534 0.788881 6.128 0.841205C6.12805 0.841324 6.1281 0.841443 6.12815 0.841562L7.49729 4.04617L7.61435 4.32015L7.91107 4.34709L11.3746 4.66158L11.3749 4.66161C11.4304 4.66662 11.4768 4.70377 11.4939 4.75665Z" stroke="#FFC107" stroke-width="0.998073"/>
</svg>
