<svg width="22" height="22" viewBox="0 0 22 22" fill="none" xmlns="http://www.w3.org/2000/svg">
<path d="M18.7778 3.22222C16.6991 1.14352 13.9398 0 11 0C8.06019 0 5.30093 1.14352 3.22222 3.22222C1.14352 5.30093 0 8.06019 0 11C0 13.9398 1.14352 16.6991 3.22222 18.7778C5.30093 20.8565 8.06019 22 11 22C13.9398 22 16.6991 20.8565 18.7778 18.7778C20.8565 16.6991 22 13.9398 22 11C22 8.06019 20.8565 5.30093 18.7778 3.22222ZM17.8935 17.8935C16.0509 19.7361 13.6019 20.75 11 20.75C8.39815 20.75 5.94907 19.7361 4.10648 17.8935C0.305555 14.0926 0.305555 7.90741 4.10648 4.10648C5.94907 2.26389 8.39815 1.25 11 1.25C13.6019 1.25 16.0509 2.26389 17.8935 4.10648C21.6944 7.90741 21.6944 14.0926 17.8935 17.8935Z" fill="#F07C00"/>
<path d="M15.5 6.25L11 15.75L6.5 10.75" stroke="#F07C00" stroke-width="1.2" stroke-linecap="round" stroke-linejoin="round"/>
</svg>
