<svg width="144" height="146" viewBox="0 0 144 146" fill="none" xmlns="http://www.w3.org/2000/svg">
<path d="M51.8719 110.943C80.5027 110.943 103.713 87.7335 103.713 59.1026C103.713 30.4718 80.5027 7.26196 51.8719 7.26196C23.2411 7.26196 0.03125 30.4718 0.03125 59.1026C0.03125 87.7335 23.2411 110.943 51.8719 110.943Z" fill="#376A98" fill-opacity="0.25"/>
<path d="M117.925 143.2H42.0746C35.0379 143.2 29.3333 137.495 29.3333 130.459V54.564C29.3333 47.5273 35.0379 41.8226 42.0746 41.8226H117.925C124.962 41.8226 130.667 47.5273 130.667 54.564V130.459C130.667 137.495 124.962 143.2 117.925 143.2Z" fill="white"/>
<path d="M117.926 145.867H42.0738C33.5778 145.867 26.6665 138.955 26.6665 130.459V54.5647C26.6665 46.0687 33.5778 39.156 42.0738 39.156H117.925C126.421 39.156 133.333 46.0687 133.333 54.5647V130.459C133.333 138.955 126.422 145.867 117.926 145.867ZM42.0738 44.4887C36.5192 44.4887 31.9998 49.008 31.9998 54.564V130.459C31.9998 136.013 36.5192 140.533 42.0738 140.533H117.925C123.48 140.533 127.999 136.013 127.999 130.459V54.5647C127.999 49.0087 123.48 44.4893 117.925 44.4893H42.0738V44.4887Z" fill="#376A98"/>
<path d="M52.0346 68.212L83.5406 93.824L141.302 34.1213V71.802L83.5406 125.973L44.8953 87.178L52.0346 68.212Z" fill="#CDDAE5"/>
<path d="M83.5406 128.64C82.8559 128.64 82.1719 128.377 81.6513 127.855L43.0066 89.0594C42.2699 88.32 42.0326 87.2167 42.3999 86.2393L49.5393 67.2733C49.8413 66.47 50.5119 65.862 51.3386 65.638C52.1639 65.4113 53.0506 65.6013 53.7173 66.1433L83.3239 90.2127L139.385 32.2687C140.143 31.4873 141.297 31.2453 142.302 31.65C143.31 32.0573 143.969 33.0353 143.969 34.1227V71.8027C143.969 72.5393 143.664 73.244 143.126 73.748L85.3639 127.92C84.8499 128.401 84.1953 128.64 83.5406 128.64ZM47.9959 86.5113L83.6039 122.259L138.635 70.6467V40.7133L85.4566 95.678C84.4959 96.6687 82.9319 96.768 81.8579 95.8927L53.2266 72.6167L47.9959 86.5113Z" fill="#376A98"/>
<path d="M126.314 11.796C125.632 11.796 124.949 11.5353 124.428 11.0147C123.387 9.97399 123.387 8.28533 124.428 7.244L130.084 1.58666C131.126 0.545331 132.814 0.545331 133.855 1.58666C134.896 2.62733 134.896 4.316 133.855 5.35733L128.199 11.0147C127.678 11.536 126.996 11.796 126.314 11.796Z" fill="#376A98"/>
<path d="M113.115 24.9953C112.433 24.9953 111.75 24.7347 111.229 24.214C110.188 23.1733 110.188 21.4847 111.229 20.4433L116.885 14.786C117.927 13.7447 119.615 13.7447 120.656 14.786C121.697 15.8267 121.697 17.5153 120.656 18.5567L115 24.214C114.479 24.7353 113.797 24.9953 113.115 24.9953Z" fill="#376A98"/>
<path d="M118.145 11.17C117.463 11.17 116.78 10.9093 116.259 10.3887L110.556 4.68533C109.515 3.644 109.515 1.956 110.556 0.914667C111.597 -0.126666 113.285 -0.126666 114.327 0.914667L120.03 6.618C121.071 7.65933 121.071 9.34733 120.03 10.3887C119.509 10.9093 118.827 11.17 118.145 11.17Z" fill="#376A98"/>
<path d="M131.97 24.9953C131.288 24.9953 130.605 24.7347 130.084 24.214L124.428 18.5567C123.387 17.5153 123.387 15.826 124.428 14.786C125.47 13.7447 127.158 13.7447 128.199 14.786L133.855 20.4433C134.896 21.4847 134.896 23.174 133.855 24.214C133.334 24.7353 132.652 24.9953 131.97 24.9953Z" fill="#376A98"/>
</svg>
