<svg width="44" height="44" viewBox="0 0 44 44" fill="none" xmlns="http://www.w3.org/2000/svg">
<path fill-rule="evenodd" clip-rule="evenodd" d="M22 44C34.1503 44 44 34.1503 44 22C44 9.84974 34.1503 0 22 0C9.84974 0 0 9.84974 0 22C0 34.1503 9.84974 44 22 44ZM22 41.36C32.6922 41.36 41.36 32.6922 41.36 22C41.36 11.3078 32.6922 2.64 22 2.64C11.3078 2.64 2.64 11.3078 2.64 22C2.64 32.6922 11.3078 41.36 22 41.36ZM23.5968 31.68V21.9989H26.4605L26.84 18.6627H23.5968L23.6016 16.9929C23.6016 16.1228 23.6902 15.6566 25.0294 15.6566H26.8197V12.32H23.9556C20.5153 12.32 19.3044 13.9384 19.3044 16.66V18.6631H17.16V21.9992H19.3044V31.68H23.5968Z" fill="white"/>
</svg>
