<svg width="44" height="44" viewBox="0 0 44 44" fill="none" xmlns="http://www.w3.org/2000/svg">
<path fill-rule="evenodd" clip-rule="evenodd" d="M22 0C9.84974 0 0 9.84974 0 22C0 34.1503 9.84974 44 22 44C34.1503 44 44 34.1503 44 22C44 9.84974 34.1503 0 22 0ZM22 2.64C11.3078 2.64 2.64 11.3078 2.64 22C2.64 32.6922 11.3078 41.36 22 41.36C32.6922 41.36 41.36 32.6922 41.36 22C41.36 11.3078 32.6922 2.64 22 2.64ZM31.6372 30.3685C31.6537 30.2786 31.6659 30.1873 31.68 30.0972V13.9028C31.6665 13.8141 31.6548 13.7251 31.6383 13.6367C31.4688 12.7296 30.7532 12.0256 29.8744 11.8999C29.838 11.895 29.8023 11.8866 29.7664 11.88H14.2336C14.1399 11.8976 14.0457 11.9109 13.9534 11.9329C13.0956 12.1372 12.461 12.8593 12.3388 13.7679C12.3338 13.8057 12.3264 13.8433 12.32 13.8812V30.1197C12.3377 30.2226 12.3518 30.3263 12.3739 30.4286C12.5635 31.3054 13.2794 31.985 14.1311 32.0995C14.1723 32.1047 14.2137 32.1131 14.2549 32.12H29.7451C29.8457 32.1021 29.9466 32.0873 30.0461 32.0648C30.8367 31.8894 31.4826 31.1999 31.6372 30.3685ZM14.4147 29.1271C14.4147 29.5579 14.7715 29.9284 15.1837 29.9284C19.7269 29.9287 24.2698 29.9287 28.813 29.9284C29.229 29.9284 29.5839 29.5585 29.5839 29.1245C29.5842 26.1327 29.5839 23.1412 29.5839 20.1497V20.0875H27.7358C27.9967 20.9594 28.0769 21.8463 27.9746 22.7502C27.8718 23.6544 27.5932 24.4959 27.1393 25.273C26.6851 26.0509 26.0964 26.6953 25.3755 27.2082C23.5069 28.5387 21.0468 28.6557 19.064 27.4923C18.0617 26.9048 17.2748 26.0856 16.7261 25.0299C15.9076 23.4547 15.7769 21.8015 16.257 20.0861C15.6439 20.0867 15.0333 20.0867 14.4144 20.0867V20.1413C14.4144 23.1365 14.4141 26.1318 14.4147 29.1271ZM21.91 26.0991C24.102 26.1483 25.875 24.3173 25.9211 22.0904C25.9684 19.7939 24.1966 17.8971 22.0001 17.8985C19.8529 17.8971 18.1074 19.7032 18.0772 21.9379C18.0463 24.2326 19.8034 26.0518 21.91 26.0991ZM29.5836 16.2638C29.5839 15.6249 29.5839 14.9856 29.5836 14.3467C29.5836 13.8884 29.2367 13.5237 28.7989 13.5234C28.1894 13.5231 27.5799 13.5228 26.9701 13.5234C26.5334 13.524 26.1854 13.8896 26.1851 14.3479C26.1848 14.9813 26.1832 15.6147 26.1873 16.2485C26.1879 16.343 26.205 16.4412 26.2337 16.5308C26.3432 16.868 26.6387 17.075 27.0005 17.0767C27.2946 17.0773 27.5887 17.0764 27.8831 17.0764C28.2016 17.0726 28.5211 17.079 28.8398 17.0709C29.2497 17.0602 29.5836 16.6929 29.5836 16.2638Z" fill="white"/>
</svg>
