<svg width="32" height="32" viewBox="0 0 32 32" fill="none" xmlns="http://www.w3.org/2000/svg">
<rect width="32" height="32" rx="4" fill="#E5E5E5"/>
<path d="M12.6556 23.3347L11.3906 24.591C10.2941 25.6779 8.51062 25.6788 7.41469 24.591C6.88781 24.0682 6.59844 23.3738 6.59844 22.6357C6.59844 21.8975 6.88812 21.2029 7.41438 20.68L12.0706 16.0604C13.0356 15.1035 14.8509 13.6944 16.1741 15.0066C16.7812 15.6097 17.7619 15.6057 18.3647 14.9988C18.9678 14.3919 18.9641 13.411 18.3569 12.8085C16.1078 10.5766 12.7838 10.9891 9.88875 13.8616L5.23219 18.4816C4.115 19.5907 3.5 21.0657 3.5 22.6357C3.5 24.2057 4.115 25.6804 5.2325 26.7894C6.38219 27.93 7.89187 28.5 9.40219 28.5C10.9128 28.5 12.4231 27.93 13.5734 26.7888L14.8394 25.5322C15.4462 24.9297 15.4497 23.9491 14.8466 23.3419C14.2444 22.7354 13.2628 22.7319 12.6556 23.3347ZM26.7669 5.38879C24.3513 2.99191 20.9737 2.86191 18.7375 5.08066L17.1606 6.64598C16.5534 7.24879 16.5497 8.2291 17.1528 8.83629C17.7559 9.44348 18.7366 9.44691 19.3438 8.8441L20.92 7.27973C22.0784 6.12941 23.5953 6.60629 24.5847 7.58785C25.1122 8.11066 25.4019 8.80535 25.4019 9.54348C25.4019 10.2819 25.1119 10.9766 24.5853 11.4994L19.6175 16.4275C17.3459 18.6813 16.2803 17.6235 15.8256 17.1722C15.2184 16.5694 14.2381 16.5732 13.635 17.18C13.0319 17.7869 13.0356 18.7679 13.6428 19.3704C14.6856 20.4054 15.8759 20.9185 17.1238 20.9185C18.6516 20.9185 20.2653 20.1491 21.7997 18.6257L26.7675 13.6975C27.8844 12.5885 28.5 11.1132 28.5 9.54316C28.5 7.97379 27.8844 6.49848 26.7669 5.38879Z" fill="black" fill-opacity="0.9"/>
</svg>
