<svg width="32" height="32" viewBox="0 0 32 32" fill="none" xmlns="http://www.w3.org/2000/svg">
<rect width="32" height="32" rx="4" fill="#F1635A"/>
<path d="M26.6576 8.21721C26.3229 8.07858 25.9594 8 25.5781 8H6.4218C6.04044 8 5.67646 8.07858 5.34229 8.21721L15.9999 14.844L26.6576 8.21721Z" fill="white"/>
<path d="M16.3246 17.3731C16.3205 17.3743 16.3162 17.3743 16.3122 17.3752C16.2733 17.3806 16.2345 17.3851 16.1952 17.3885C16.1823 17.3894 16.1701 17.3907 16.1568 17.3916C16.1263 17.3934 16.0958 17.3953 16.0651 17.3962C16.043 17.3966 16.0216 17.3971 15.9999 17.3971C15.9782 17.3971 15.9563 17.3966 15.9346 17.3962C15.9037 17.3953 15.8734 17.3934 15.8425 17.3916C15.8296 17.3907 15.8174 17.3894 15.8046 17.3885C15.7653 17.3851 15.7265 17.3808 15.6876 17.3752C15.6831 17.3743 15.6793 17.3743 15.6752 17.3731C15.4248 17.3363 15.1848 17.2573 14.9845 17.1331L3.65106 10.0857C3.55419 10.3882 3.5 10.7111 3.5 11.0475V21.2062C3.5 22.8897 4.80824 24.2539 6.42176 24.2539H25.578C27.1915 24.2539 28.5 22.8897 28.5 21.2062V11.0475C28.5 10.7111 28.4458 10.3882 28.3487 10.0857L17.0151 17.1327C16.8148 17.2573 16.575 17.3361 16.3246 17.3731Z" fill="white"/>
</svg>
