<svg width="44" height="46" viewBox="0 0 44 46" fill="none" xmlns="http://www.w3.org/2000/svg">
<g clip-path="url(#clip0)">
<path fill-rule="evenodd" clip-rule="evenodd" d="M44 22.8604C44 10.2349 34.1503 0 22 0C9.84974 0 0 10.2349 0 22.8604C0 35.4858 9.84974 45.7207 22 45.7207C34.1503 45.7207 44 35.4858 44 22.8604ZM41.36 22.8604C41.36 11.75 32.6922 2.74324 22 2.74324C11.3078 2.74324 2.64 11.75 2.64 22.8604C2.64 33.9707 11.3078 42.9775 22 42.9775C32.6922 42.9775 41.36 33.9707 41.36 22.8604Z" fill="white"/>
<path d="M30.25 17.1453C29.156 17.1453 28.1068 16.6937 27.3332 15.8898C26.5596 15.086 26.125 13.9957 26.125 12.8589C26.125 12.48 25.9801 12.1166 25.7223 11.8487C25.4644 11.5807 25.1147 11.4302 24.75 11.4302C24.3853 11.4302 24.0356 11.5807 23.7777 11.8487C23.5199 12.1166 23.375 12.48 23.375 12.8589V27.1467C23.375 27.9944 23.1331 28.8231 22.6798 29.528C22.2266 30.2329 21.5823 30.7823 20.8286 31.1067C20.0748 31.4311 19.2454 31.516 18.4453 31.3506C17.6451 31.1852 16.9101 30.777 16.3332 30.1776C15.7563 29.5781 15.3634 28.8144 15.2043 27.9829C15.0451 27.1514 15.1268 26.2896 15.439 25.5064C15.7512 24.7231 16.2799 24.0537 16.9583 23.5827C17.6366 23.1117 18.4342 22.8604 19.25 22.8604C19.6147 22.8604 19.9644 22.7098 20.2223 22.4419C20.4801 22.1739 20.625 21.8105 20.625 21.4316C20.625 21.0526 20.4801 20.6892 20.2223 20.4213C19.9644 20.1533 19.6147 20.0028 19.25 20.0028C17.8903 20.0028 16.561 20.4218 15.4305 21.2068C14.2999 21.9917 13.4187 23.1075 12.8983 24.4128C12.378 25.7182 12.2418 27.1546 12.5071 28.5404C12.7724 29.9261 13.4272 31.1991 14.3886 32.1981C15.3501 33.1972 16.5751 33.8776 17.9088 34.1533C19.2424 34.4289 20.6247 34.2874 21.881 33.7467C23.1372 33.206 24.2109 32.2904 24.9664 31.1156C25.7218 29.9408 26.125 28.5596 26.125 27.1467V18.574C27.3112 19.509 28.7612 20.0112 30.25 20.0028C30.6147 20.0028 30.9644 19.8523 31.2223 19.5843C31.4801 19.3164 31.625 18.953 31.625 18.574C31.625 18.1951 31.4801 17.8317 31.2223 17.5637C30.9644 17.2958 30.6147 17.1453 30.25 17.1453Z" fill="white"/>
</g>
<defs>
<clipPath id="clip0">
<rect width="44" height="45.7207" fill="white"/>
</clipPath>
</defs>
</svg>
