<svg width="32" height="32" viewBox="0 0 32 32" fill="none" xmlns="http://www.w3.org/2000/svg">
<rect width="32" height="32" rx="4" fill="#7B519D"/>
<path fill-rule="evenodd" clip-rule="evenodd" d="M26.3696 21.5911C25.6072 20.9774 24.7925 20.4265 23.9906 19.8637C22.3912 18.7404 20.9284 18.6531 19.7349 20.4603C19.0647 21.475 18.1265 21.5194 17.1456 21.0742C14.4411 19.8481 12.3528 17.9586 11.1296 15.2099C10.5885 13.9938 10.5956 12.9034 11.8617 12.0433C12.532 11.5885 13.2073 11.0502 13.1533 10.0563C13.0828 8.76028 9.93609 4.42921 8.69349 3.9721C8.17928 3.7829 7.66724 3.79515 7.14413 3.97101C4.23033 4.95087 3.0235 7.34718 4.1793 10.1845C7.62739 18.6497 13.6956 24.5428 22.0487 28.1397C22.5249 28.3445 23.054 28.4264 23.3219 28.4999C25.2236 28.519 27.4514 26.6868 28.0948 24.8684C28.7142 23.119 27.4051 22.4246 26.3696 21.5911Z" fill="white"/>
<path fill-rule="evenodd" clip-rule="evenodd" d="M17.0034 4.83992C23.1101 5.77902 25.9264 8.68274 26.7041 14.8334C26.7762 15.4015 26.5645 16.2564 27.3751 16.2721C28.2222 16.2883 28.0181 15.4461 28.0252 14.8774C28.0968 9.08465 23.0459 3.71452 17.18 3.51652C16.7374 3.58016 15.8216 3.21129 15.7645 4.20323C15.7265 4.87206 16.4975 4.76211 17.0034 4.83992Z" fill="white"/>
<path fill-rule="evenodd" clip-rule="evenodd" d="M18.198 6.52637C17.6106 6.45565 16.8352 6.17884 16.6979 6.99392C16.5547 7.84932 17.4189 7.76243 17.9742 7.88672C21.7458 8.72968 23.0591 10.1025 23.6801 13.8437C23.7708 14.3891 23.5905 15.2381 24.5175 15.0974C25.2045 14.9928 24.9563 14.265 25.0138 13.84C25.0442 10.2482 21.9664 6.97885 18.198 6.52637Z" fill="white"/>
<path fill-rule="evenodd" clip-rule="evenodd" d="M18.5444 9.46349C18.1523 9.47321 17.7674 9.51561 17.6233 9.93459C17.4069 10.5608 17.8622 10.7102 18.3257 10.7846C19.8729 11.033 20.6871 11.9453 20.8416 13.4882C20.8834 13.907 21.1491 14.2462 21.5537 14.1985C22.1142 14.1317 22.1649 13.6327 22.1477 13.1589C22.1754 11.4255 20.2162 9.422 18.5444 9.46349Z" fill="white"/>
</svg>
