<svg width="32" height="32" viewBox="0 0 32 32" fill="none" xmlns="http://www.w3.org/2000/svg">
<rect width="32" height="32" rx="4" fill="#65BC54"/>
<path fill-rule="evenodd" clip-rule="evenodd" d="M28.5 15.6783C28.5 22.4039 23.0055 27.8561 16.2273 27.8561C14.0753 27.8561 12.0537 27.3059 10.2948 26.341L3.5 28.5L5.71486 21.966C4.59748 20.1305 3.95406 17.9785 3.95406 15.6782C3.95406 8.9522 9.44878 3.5 16.2272 3.5C23.0055 3.50006 28.5 8.95229 28.5 15.6783ZM16.2273 5.4395C10.5372 5.4395 5.90888 10.0328 5.90888 15.6783C5.90888 17.9183 6.6391 19.9934 7.87426 21.6811L6.5854 25.4831L10.5506 24.2228C12.18 25.2924 14.1313 25.9165 16.2272 25.9165C21.9165 25.9165 26.5455 21.3236 26.5455 15.6782C26.5455 10.0328 21.9166 5.4395 16.2273 5.4395ZM22.4245 18.4826C22.3488 18.3583 22.1483 18.2835 21.8479 18.1344C21.5469 17.9852 20.0673 17.2628 19.7921 17.1635C19.5159 17.064 19.3151 17.014 19.1147 17.3126C18.9144 17.612 18.3379 18.2835 18.162 18.4826C17.9865 18.6821 17.8115 18.707 17.5104 18.5576C17.21 18.4084 16.2403 18.0933 15.0911 17.0762C14.1969 16.2851 13.593 15.3084 13.4175 15.0093C13.2419 14.7106 13.3989 14.5491 13.5494 14.4005C13.6847 14.2663 13.8502 14.0517 14.0009 13.8778C14.1513 13.7031 14.2013 13.5789 14.3014 13.3797C14.4022 13.1804 14.3514 13.0063 14.2765 12.8565C14.2013 12.7076 13.5994 11.2384 13.3487 10.641C13.098 10.0435 12.848 10.1431 12.6721 10.1431C12.4965 10.1431 12.2961 10.1181 12.0953 10.1181C11.8946 10.1181 11.5686 10.193 11.293 10.4914C11.0174 10.7904 10.2404 11.5122 10.2404 12.981C10.2404 14.4501 11.3181 15.8692 11.4687 16.0683C11.619 16.2669 13.5493 19.379 16.6074 20.5747C19.6666 21.7692 19.6666 21.3712 20.2182 21.3207C20.7691 21.2715 21.9976 20.5992 22.2487 19.9019C22.4993 19.2051 22.4993 18.607 22.4245 18.4826Z" fill="white"/>
</svg>
