<svg width="44" height="44" viewBox="0 0 44 44" fill="none" xmlns="http://www.w3.org/2000/svg">
<path fill-rule="evenodd" clip-rule="evenodd" d="M44 22C44 9.84974 34.1503 0 22 0C9.84974 0 0 9.84974 0 22C0 34.1503 9.84974 44 22 44C34.1503 44 44 34.1503 44 22ZM41.36 22C41.36 11.3078 32.6922 2.64 22 2.64C11.3078 2.64 2.64 11.3078 2.64 22C2.64 32.6922 11.3078 41.36 22 41.36C32.6922 41.36 41.36 32.6922 41.36 22ZM32.3561 27.0736C32.0934 28.2152 31.1597 29.0569 30.0361 29.1824C27.3746 29.4798 24.6808 29.4813 21.9986 29.4798C19.3167 29.4813 16.6227 29.4798 13.9615 29.1824C12.8376 29.0569 11.9043 28.2152 11.6419 27.0736C11.2682 25.4478 11.2682 23.6738 11.2682 22.0002C11.2682 20.3264 11.2726 18.5522 11.6461 16.9264C11.9088 15.7848 12.8421 14.9429 13.9656 14.8176C16.6271 14.5202 19.3209 14.5187 22.0031 14.5202C24.685 14.5187 27.379 14.5202 30.0403 14.8176C31.1641 14.9429 32.0979 15.7848 32.3603 16.9264C32.734 18.5522 32.7318 20.3264 32.7318 22.0002C32.7318 23.6738 32.7296 25.4478 32.3561 27.0736ZM20.0682 18.04L26.0082 21.4695L20.0682 24.8989V18.04Z" fill="white"/>
</svg>
