<svg width="50" height="50" viewBox="0 0 50 50" fill="none" xmlns="http://www.w3.org/2000/svg">
<path d="M27.3168 30.4168H22.6739C22.4687 30.4168 22.2719 30.3352 22.1268 30.1901C21.9816 30.045 21.9001 29.8482 21.9001 29.6429V26.7388C21.7887 26.6947 21.6811 26.6498 21.5759 26.6042L19.5222 28.6579C19.3771 28.803 19.1803 28.8846 18.9751 28.8846C18.7699 28.8846 18.5731 28.803 18.428 28.6579L15.1471 25.3769C15.002 25.2318 14.9205 25.035 14.9205 24.8298C14.9205 24.6246 15.002 24.4279 15.1471 24.2828L17.2008 22.2283C17.1543 22.1238 17.1102 22.0163 17.0661 21.9048H14.162C13.9568 21.9048 13.7599 21.8233 13.6148 21.6782C13.4697 21.5331 13.3882 21.3362 13.3882 21.131V16.4881C13.3882 16.2829 13.4697 16.0861 13.6148 15.941C13.7599 15.7959 13.9568 15.7143 14.162 15.7143H17.0661C17.1102 15.6029 17.1543 15.4953 17.2008 15.3901L15.1471 13.3364C15.002 13.1913 14.9205 12.9945 14.9205 12.7893C14.9205 12.5841 15.002 12.3873 15.1471 12.2422L18.428 8.96127C18.5759 8.82146 18.7716 8.74356 18.9751 8.74356C19.1786 8.74356 19.3743 8.82146 19.5222 8.96127L21.5759 11.015C21.6811 10.9693 21.7887 10.9244 21.9001 10.8803V7.9762C21.9001 7.77098 21.9816 7.57416 22.1268 7.42904C22.2719 7.28392 22.4687 7.20239 22.6739 7.20239H27.3168C27.522 7.20239 27.7189 7.28392 27.864 7.42904C28.0091 7.57416 28.0906 7.77098 28.0906 7.9762V10.8803C28.202 10.9244 28.3096 10.9693 28.4148 11.015L30.4685 8.96127C30.6136 8.81614 30.8104 8.73458 31.0156 8.73454C31.2208 8.73458 31.4176 8.81614 31.5627 8.96127L34.8437 12.2422C34.9887 12.3873 35.0702 12.5841 35.0702 12.7893C35.0702 12.9945 34.9887 13.1913 34.8437 13.3364L32.79 15.3901C32.8364 15.4953 32.8805 15.6029 32.9246 15.7143H35.8287C36.034 15.7143 36.2308 15.7959 36.3759 15.941C36.521 16.0861 36.6026 16.2829 36.6026 16.4881V21.131C36.6026 21.3362 36.521 21.5331 36.3759 21.6782C36.2308 21.8233 36.034 21.9048 35.8287 21.9048H32.9246C32.8805 22.0163 32.8364 22.1238 32.79 22.2283L34.8437 24.2828C34.9887 24.4279 35.0702 24.6246 35.0702 24.8298C35.0702 25.035 34.9887 25.2318 34.8437 25.3769L31.5627 28.6579C31.4149 28.7977 31.2191 28.8756 31.0156 28.8756C30.8121 28.8756 30.6164 28.7977 30.4685 28.6579L28.4148 26.6042C28.3096 26.6498 28.202 26.6947 28.0906 26.7388V29.6429C28.0906 29.8482 28.0091 30.045 27.864 30.1901C27.7189 30.3352 27.522 30.4168 27.3168 30.4168ZM23.4477 28.8691H26.543V26.1917C26.5429 26.028 26.5948 25.8685 26.6912 25.7361C26.7876 25.6037 26.9234 25.5053 27.0792 25.4551C27.4665 25.3355 27.8412 25.1787 28.1982 24.9869C28.345 24.9064 28.514 24.8757 28.6797 24.8995C28.8455 24.9232 28.9991 25 29.1175 25.1185L31.0156 27.0166L33.2016 24.8298L31.3043 22.9317C31.186 22.8134 31.1093 22.6599 31.0855 22.4943C31.0618 22.3287 31.0924 22.1599 31.1727 22.0132C31.364 21.6559 31.5208 21.2813 31.6409 20.8942C31.691 20.7383 31.7893 20.6022 31.9217 20.5057C32.0541 20.4092 32.2137 20.3572 32.3775 20.3572H35.0549V17.262H32.3775C32.2137 17.2619 32.0541 17.2099 31.9217 17.1134C31.7893 17.0169 31.691 16.8809 31.6409 16.7249C31.5208 16.3379 31.364 15.9632 31.1727 15.606C31.0924 15.4592 31.0618 15.2904 31.0855 15.1248C31.1093 14.9592 31.186 14.8058 31.3043 14.6875L33.2016 12.7893L31.0156 10.6025L29.1175 12.5007C28.9991 12.6191 28.8455 12.696 28.6797 12.7197C28.514 12.7434 28.345 12.7127 28.1982 12.6322C27.841 12.4418 27.4663 12.2863 27.0792 12.1679C26.9228 12.1175 26.7865 12.0185 26.6901 11.8853C26.5936 11.7522 26.5421 11.5918 26.543 11.4274V8.75002H23.4477V11.4274C23.4478 11.5911 23.3959 11.7507 23.2995 11.883C23.2032 12.0154 23.0673 12.1138 22.9115 12.1641C22.5244 12.2824 22.1497 12.4379 21.7926 12.6284C21.6457 12.7089 21.4767 12.7395 21.311 12.7158C21.1452 12.6921 20.9916 12.6153 20.8733 12.4968L18.9751 10.6025L16.793 12.7893L18.6903 14.6875C18.8086 14.8058 18.8853 14.9592 18.9091 15.1248C18.9328 15.2904 18.9022 15.4592 18.8219 15.606C18.6306 15.9632 18.4738 16.3379 18.3537 16.7249C18.3034 16.8815 18.2045 17.018 18.0713 17.1146C17.9382 17.2111 17.7777 17.2628 17.6132 17.262H14.9358V20.3572H17.6132C17.777 20.3572 17.9366 20.4092 18.069 20.5057C18.2014 20.6022 18.2997 20.7383 18.3499 20.8942C18.4699 21.2813 18.6267 21.6559 18.818 22.0132C18.8983 22.1599 18.9289 22.3287 18.9052 22.4943C18.8815 22.6599 18.8047 22.8134 18.6865 22.9317L16.793 24.8298L18.979 27.0166L20.8771 25.1185C20.9955 25 21.1491 24.9232 21.3149 24.8995C21.4806 24.8757 21.6496 24.9064 21.7964 24.9869C22.1534 25.1787 22.5281 25.3355 22.9154 25.4551C23.0705 25.506 23.2055 25.6047 23.3011 25.737C23.3967 25.8693 23.4481 26.0285 23.4477 26.1917V28.8691Z" fill="#F07C00"/>
<path d="M24.9953 23.4525C24.077 23.4525 23.1794 23.1802 22.4158 22.67C21.6523 22.1599 21.0572 21.4347 20.7058 20.5864C20.3544 19.738 20.2625 18.8045 20.4416 17.9038C20.6208 17.0032 21.063 16.1759 21.7123 15.5266C22.3616 14.8773 23.1889 14.4351 24.0895 14.256C24.9901 14.0768 25.9237 14.1688 26.772 14.5202C27.6204 14.8716 28.3455 15.4667 28.8557 16.2302C29.3659 16.9937 29.6382 17.8913 29.6382 18.8096C29.6369 20.0406 29.1474 21.2208 28.2769 22.0913C27.4065 22.9617 26.2263 23.4513 24.9953 23.4525ZM24.9953 15.7144C24.3831 15.7144 23.7847 15.8959 23.2757 16.236C22.7667 16.5761 22.3699 17.0595 22.1357 17.6251C21.9014 18.1907 21.8401 18.8131 21.9595 19.4135C22.0789 20.0139 22.3737 20.5654 22.8066 20.9983C23.2395 21.4312 23.791 21.726 24.3914 21.8454C24.9919 21.9648 25.6142 21.9035 26.1798 21.6693C26.7454 21.435 27.2288 21.0383 27.5689 20.5293C27.909 20.0202 28.0905 19.4218 28.0905 18.8096C28.0905 17.9887 27.7644 17.2014 27.184 16.621C26.6035 16.0405 25.8162 15.7144 24.9953 15.7144Z" fill="#F07C00"/>
<path d="M43.5668 35.8335C43.772 35.8335 43.9689 35.752 44.114 35.6069C44.2591 35.4617 44.3406 35.2649 44.3406 35.0597V2.55958C44.3406 2.35435 44.2591 2.15753 44.114 2.01241C43.9689 1.86729 43.772 1.78577 43.5668 1.78577H10.2929C9.06191 1.787 7.88169 2.27655 7.01125 3.14699C6.14081 4.01743 5.65125 5.19765 5.65002 6.42864V38.9288C5.65125 40.1597 6.14081 41.34 7.01125 42.2104C7.88169 43.0808 9.06191 43.5704 10.2929 43.5716H12.6143V47.4407C12.6144 47.5937 12.6598 47.7433 12.7448 47.8705C12.8298 47.9977 12.9507 48.0969 13.092 48.1554C13.2334 48.214 13.389 48.2293 13.5391 48.1995C13.6891 48.1696 13.827 48.096 13.9352 47.9878L16.4834 45.4396L19.0316 47.9878C19.1398 48.096 19.2776 48.1696 19.4277 48.1995C19.5778 48.2293 19.7334 48.214 19.8747 48.1554C20.0161 48.0969 20.137 47.9977 20.222 47.8705C20.307 47.7433 20.3524 47.5937 20.3525 47.4407V43.5716H43.5668C43.772 43.5716 43.9689 43.4901 44.114 43.345C44.2591 43.1999 44.3406 43.003 44.3406 42.7978C44.3406 42.5926 44.2591 42.3958 44.114 42.2506C43.9689 42.1055 43.772 42.024 43.5668 42.024C42.7459 42.024 41.9586 41.6979 41.3782 41.1174C40.7977 40.537 40.4716 39.7497 40.4716 38.9288C40.4716 38.1078 40.7977 37.3206 41.3782 36.7401C41.9586 36.1596 42.7459 35.8335 43.5668 35.8335ZM18.8048 45.5727L17.0305 43.7984C16.8854 43.6533 16.6886 43.5718 16.4834 43.5718C16.2782 43.5718 16.0814 43.6533 15.9363 43.7984L14.162 45.5727V39.7026H18.8048V45.5727ZM40.1156 42.024H20.3525V39.7026H36.6025C36.8077 39.7026 37.0046 39.621 37.1497 39.4759C37.2948 39.3308 37.3763 39.134 37.3763 38.9288C37.3763 38.7235 37.2948 38.5267 37.1497 38.3816C37.0046 38.2365 36.8077 38.1549 36.6025 38.1549H9.51909C9.31386 38.1549 9.11704 38.2365 8.97192 38.3816C8.8268 38.5267 8.74527 38.7235 8.74527 38.9288C8.74527 39.134 8.8268 39.3308 8.97192 39.4759C9.11704 39.621 9.31386 39.7026 9.51909 39.7026H12.6143V42.024H10.2929C9.47199 42.024 8.6847 41.6979 8.10423 41.1174C7.52375 40.537 7.19765 39.7497 7.19765 38.9288C7.19765 38.1078 7.52375 37.3206 8.10423 36.7401C8.6847 36.1596 9.47199 35.8335 10.2929 35.8335H40.1156C39.3486 36.682 38.924 37.785 38.924 38.9288C38.924 40.0725 39.3486 41.1755 40.1156 42.024ZM10.2929 34.2859C9.15043 34.286 8.04821 34.7078 7.19765 35.4706V6.42864C7.19765 5.60773 7.52375 4.82044 8.10423 4.23997C8.6847 3.6595 9.47199 3.33339 10.2929 3.33339H42.793V34.2859H10.2929Z" fill="#F07C00"/>
</svg>
