<svg width="50" height="50" viewBox="0 0 50 50" fill="none" xmlns="http://www.w3.org/2000/svg">
<path d="M45.3624 11.1664L35.9874 1.79141C35.8409 1.64488 35.6422 1.56254 35.4351 1.5625H12.7788C12.5716 1.5625 12.3729 1.64481 12.2264 1.79132C12.0799 1.93784 11.9976 2.13655 11.9976 2.34375V7.03125C11.9976 7.23845 12.0799 7.43716 12.2264 7.58368C12.3729 7.73019 12.5716 7.8125 12.7788 7.8125C12.986 7.8125 13.1847 7.73019 13.3312 7.58368C13.4777 7.43716 13.5601 7.23845 13.5601 7.03125V3.125H34.6538V11.7188C34.6538 11.926 34.7361 12.1247 34.8826 12.2712C35.0291 12.4177 35.2279 12.5 35.4351 12.5H44.0288V46.875H13.5601V42.9688C13.5601 42.7616 13.4777 42.5628 13.3312 42.4163C13.1847 42.2698 12.986 42.1875 12.7788 42.1875C12.5716 42.1875 12.3729 42.2698 12.2264 42.4163C12.0799 42.5628 11.9976 42.7616 11.9976 42.9688V47.6562C11.9976 47.8634 12.0799 48.0622 12.2264 48.2087C12.3729 48.3552 12.5716 48.4375 12.7788 48.4375H44.8101C45.0173 48.4375 45.216 48.3552 45.3625 48.2087C45.509 48.0622 45.5913 47.8634 45.5913 47.6562V11.7188C45.5913 11.5116 45.5089 11.3129 45.3624 11.1664ZM36.2163 4.22969L42.9241 10.9375H36.2163V4.22969Z" fill="#F07C00"/>
<path d="M40.1226 25.7812H26.0601C25.8529 25.7812 25.6541 25.6989 25.5076 25.5524C25.3611 25.4059 25.2788 25.2072 25.2788 25C25.2788 24.7928 25.3611 24.5941 25.5076 24.4476C25.6541 24.3011 25.8529 24.2188 26.0601 24.2188H40.1226C40.3298 24.2188 40.5285 24.3011 40.675 24.4476C40.8215 24.5941 40.9038 24.7928 40.9038 25C40.9038 25.2072 40.8215 25.4059 40.675 25.5524C40.5285 25.6989 40.3298 25.7812 40.1226 25.7812Z" fill="#F07C00"/>
<path d="M40.1226 21.0938H26.0601C25.8529 21.0938 25.6541 21.0114 25.5076 20.8649C25.3611 20.7184 25.2788 20.5197 25.2788 20.3125C25.2788 20.1053 25.3611 19.9066 25.5076 19.7601C25.6541 19.6136 25.8529 19.5312 26.0601 19.5312H40.1226C40.3298 19.5312 40.5285 19.6136 40.675 19.7601C40.8215 19.9066 40.9038 20.1053 40.9038 20.3125C40.9038 20.5197 40.8215 20.7184 40.675 20.8649C40.5285 21.0114 40.3298 21.0938 40.1226 21.0938Z" fill="#F07C00"/>
<path d="M40.1226 30.4688H26.0601C25.8529 30.4688 25.6541 30.3864 25.5076 30.2399C25.3611 30.0934 25.2788 29.8947 25.2788 29.6875C25.2788 29.4803 25.3611 29.2816 25.5076 29.1351C25.6541 28.9886 25.8529 28.9062 26.0601 28.9062H40.1226C40.3298 28.9062 40.5285 28.9886 40.675 29.1351C40.8215 29.2816 40.9038 29.4803 40.9038 29.6875C40.9038 29.8947 40.8215 30.0934 40.675 30.2399C40.5285 30.3864 40.3298 30.4688 40.1226 30.4688Z" fill="#F07C00"/>
<path d="M40.1226 16.4062H26.0601C25.8529 16.4062 25.6541 16.3239 25.5076 16.1774C25.3611 16.0309 25.2788 15.8322 25.2788 15.625C25.2788 15.4178 25.3611 15.2191 25.5076 15.0726C25.6541 14.9261 25.8529 14.8438 26.0601 14.8438H40.1226C40.3298 14.8438 40.5285 14.9261 40.675 15.0726C40.8215 15.2191 40.9038 15.4178 40.9038 15.625C40.9038 15.8322 40.8215 16.0309 40.675 16.1774C40.5285 16.3239 40.3298 16.4062 40.1226 16.4062Z" fill="#F07C00"/>
<path d="M40.1226 35.1562H26.0601C25.8529 35.1562 25.6541 35.0739 25.5076 34.9274C25.3611 34.7809 25.2788 34.5822 25.2788 34.375C25.2788 34.1678 25.3611 33.9691 25.5076 33.8226C25.6541 33.6761 25.8529 33.5938 26.0601 33.5938H40.1226C40.3298 33.5938 40.5285 33.6761 40.675 33.8226C40.8215 33.9691 40.9038 34.1678 40.9038 34.375C40.9038 34.5822 40.8215 34.7809 40.675 34.9274C40.5285 35.0739 40.3298 35.1562 40.1226 35.1562Z" fill="#F07C00"/>
<path d="M40.1226 39.8438H23.7163C23.5091 39.8438 23.3104 39.7614 23.1639 39.6149C23.0174 39.4684 22.9351 39.2697 22.9351 39.0625C22.9351 38.8553 23.0174 38.6566 23.1639 38.5101C23.3104 38.3636 23.5091 38.2812 23.7163 38.2812H40.1226C40.3298 38.2812 40.5285 38.3636 40.675 38.5101C40.8215 38.6566 40.9038 38.8553 40.9038 39.0625C40.9038 39.2697 40.8215 39.4684 40.675 39.6149C40.5285 39.7614 40.3298 39.8438 40.1226 39.8438Z" fill="#F07C00"/>
<path fill-rule="evenodd" clip-rule="evenodd" d="M7.65749 15.2431C6.74117 16.0435 6.18827 17.0876 6.02429 18.4288H8.43103C8.56362 17.6798 8.89874 17.0248 9.46237 16.5043M7.65749 15.2431C8.77489 14.2765 10.2815 13.7584 12.2554 13.7584C14.3066 13.7584 15.7938 14.2771 16.8235 15.2148L16.826 15.2171C17.855 16.146 18.4073 17.4624 18.4073 19.2756C18.4073 20.7782 17.7126 22.3331 16.1591 23.9506L14.1649 25.9123C14.1515 25.9255 14.1386 25.9391 14.1263 25.9532C13.3823 26.7986 12.985 27.9228 12.864 29.2524H10.7133C10.767 28.2472 10.9273 27.4658 11.17 26.8848C11.4705 26.1655 12.0931 25.3132 13.1086 24.3291L13.1087 24.329C14.1625 23.3075 14.8994 22.5172 15.2374 21.9978C15.7519 21.2126 16.0156 20.3486 16.0156 19.422C16.0156 18.282 15.7304 17.2843 15.0386 16.5593C14.348 15.8126 13.3731 15.4991 12.2554 15.4991C11.1655 15.4991 10.2089 15.8142 9.46255 16.5042M6.63314 14.0621C8.09809 12.7942 9.99817 12.1951 12.2554 12.1951C14.5654 12.1951 16.4739 12.7827 17.8747 14.0577C19.2972 15.3424 19.9706 17.1179 19.9706 19.2756C19.9706 21.3079 19.0182 23.2335 17.2783 25.0421C17.2734 25.0473 17.2683 25.0524 17.2632 25.0574L15.2826 27.0058C14.7441 27.63 14.4079 28.6034 14.3879 30.0449C14.3819 30.4723 14.0338 30.8157 13.6063 30.8157H9.91163C9.47993 30.8157 9.12996 30.4657 9.12996 30.034C9.12996 28.5386 9.31367 27.2728 9.72747 26.2822C10.1431 25.2871 10.9311 24.2623 12.0206 23.2065C13.0926 22.1673 13.7008 21.4932 13.9275 21.1445L13.9292 21.1418L13.9292 21.1419C14.2821 20.6036 14.4522 20.0358 14.4522 19.422C14.4522 18.5252 14.2289 17.9736 13.9048 17.6357C13.9011 17.6317 13.8973 17.6278 13.8937 17.6238C13.5864 17.2898 13.0878 17.0624 12.2554 17.0624C11.479 17.0624 10.9274 17.2789 10.5236 17.6523L10.5232 17.6527C10.1472 17.9997 9.92832 18.4868 9.92832 19.2105C9.92832 19.6422 9.57836 19.9921 9.14666 19.9921H5.19158C4.98274 19.9921 4.78258 19.9086 4.63574 19.76C4.48891 19.6115 4.4076 19.4105 4.40996 19.2016C4.43382 17.0906 5.15976 15.3482 6.63068 14.0643L6.63314 14.0621L6.63314 14.0621ZM11.8648 33.7291C11.3433 33.7291 11.0156 33.8766 10.7899 34.1024L10.7823 34.1099C10.5541 34.3319 10.4166 34.6338 10.4166 35.0959C10.4166 35.508 10.5401 35.8086 10.7686 36.052C10.9741 36.261 11.3012 36.4138 11.8648 36.4138C12.4317 36.4138 12.7594 36.2592 12.9647 36.0482C13.2034 35.8028 13.3292 35.5038 13.3292 35.0959C13.3292 34.6643 13.197 34.3597 12.9559 34.1187L12.9486 34.1112C12.724 33.8805 12.3951 33.7291 11.8648 33.7291ZM9.68823 32.9931C10.265 32.4186 11.0209 32.1658 11.8648 32.1658C12.7215 32.1658 13.4871 32.4256 14.065 33.0169C14.6244 33.5782 14.8925 34.2922 14.8925 35.0959C14.8925 35.8816 14.6277 36.5808 14.0852 37.1384C13.5092 37.7303 12.7301 37.9772 11.8648 37.9772C10.9995 37.9772 10.2203 37.7303 9.64436 37.1384L9.63674 37.1304C9.10811 36.5716 8.85327 35.875 8.85327 35.0959C8.85327 34.2794 9.1161 33.5519 9.68823 32.9931Z" fill="#F07C00"/>
</svg>
