<svg width="44" height="44" viewBox="0 0 44 44" fill="none" xmlns="http://www.w3.org/2000/svg">
<path fill-rule="evenodd" clip-rule="evenodd" d="M38 8.2H6C4.4536 8.2 3.2 9.4536 3.2 11V33C3.2 34.5464 4.4536 35.8 6 35.8H38C39.5464 35.8 40.8 34.5464 40.8 33V11C40.8 9.4536 39.5464 8.2 38 8.2ZM6 7C3.79086 7 2 8.79086 2 11V33C2 35.2091 3.79086 37 6 37H38C40.2091 37 42 35.2091 42 33V11C42 8.79086 40.2091 7 38 7H6Z" fill="black"/>
<path fill-rule="evenodd" clip-rule="evenodd" d="M18.4423 16.5278L18.4423 27.0933L27.5923 21.8105L18.4423 16.5278ZM18.7423 15.3153C18.0757 14.9304 17.2423 15.4116 17.2423 16.1814L17.2423 27.4397C17.2423 28.2095 18.0757 28.6906 18.7423 28.3057L28.4923 22.6765C29.159 22.2916 29.159 21.3294 28.4923 20.9445L18.7423 15.3153Z" fill="black"/>
</svg>
