<svg width="50" height="50" viewBox="0 0 50 50" fill="none" xmlns="http://www.w3.org/2000/svg">
<path d="M46.7861 40.159L36.0199 29.4556C36.2606 28.957 36.3159 28.3898 36.176 27.8545C36.0362 27.3192 35.7102 26.8505 35.2559 26.5313C34.8016 26.2122 34.2483 26.0632 33.6941 26.1109C33.1399 26.1586 32.6206 26.3999 32.2282 26.7919L31.1159 27.8977L29.2774 26.07L37.3635 18.0249C37.6183 17.7723 37.9284 17.5816 38.2695 17.4676C38.6106 17.3537 38.9736 17.3196 39.3302 17.368C40.7286 17.536 42.1468 17.3273 43.4363 16.7637C44.7258 16.2001 45.8393 15.3024 46.6602 14.1643C47.4811 13.0263 47.9793 11.6898 48.1026 10.2948C48.2259 8.89975 47.9698 7.4974 47.3611 6.23448C47.3067 6.12191 47.2259 6.02395 47.1256 5.94879C47.0252 5.87363 46.9082 5.82346 46.7844 5.80248C46.6605 5.7815 46.5334 5.79031 46.4137 5.82819C46.2939 5.86607 46.1851 5.9319 46.0962 6.02019L41.9922 10.1002H39.7691V7.89011L43.8731 3.81007C43.9619 3.72171 44.0281 3.61348 44.0662 3.49446C44.1043 3.37543 44.1132 3.24906 44.0921 3.12593C44.071 3.0028 44.0205 2.88648 43.9449 2.78672C43.8693 2.68695 43.7708 2.60664 43.6576 2.5525C42.387 1.94749 40.9762 1.69307 39.5729 1.81586C38.1695 1.93866 36.8252 2.43415 35.6805 3.25051C34.5357 4.06686 33.6327 5.17407 33.066 6.45627C32.4992 7.73848 32.2894 9.14856 32.4587 10.539C32.5068 10.8937 32.4719 11.2547 32.3568 11.5938C32.2416 11.9329 32.0493 12.241 31.7947 12.4941L23.7126 20.5377L11.4722 8.36952L12.0284 7.8166C12.1107 7.7348 12.1737 7.63588 12.2129 7.52695C12.2521 7.41802 12.2665 7.3018 12.255 7.18667C12.2436 7.07154 12.2066 6.96037 12.1467 6.86117C12.0869 6.76197 12.0056 6.67721 11.9088 6.613L5.2348 2.18884C5.08346 2.08852 4.90184 2.04344 4.72083 2.06126C4.53983 2.07908 4.37063 2.15872 4.24203 2.2866L2.01658 4.49829C1.88774 4.62618 1.80752 4.79454 1.78959 4.97467C1.77166 5.15479 1.81713 5.33552 1.91824 5.48604L6.36837 12.1219C6.43293 12.218 6.51812 12.2988 6.61783 12.3583C6.71754 12.4178 6.82927 12.4546 6.94499 12.466C6.97119 12.4675 6.99746 12.4675 7.02366 12.466C7.23228 12.4659 7.43233 12.3835 7.57983 12.2368L8.13599 11.6839L20.3748 23.8552L13.0644 31.1167C12.7996 31.3716 12.4801 31.5634 12.1299 31.6776C11.7796 31.7918 11.4079 31.8255 11.0427 31.776C9.8675 31.6388 8.67633 31.7687 7.55894 32.1557C6.44156 32.5428 5.42712 33.1769 4.5921 34.0104C3.15393 35.4558 2.3343 37.3986 2.30497 39.4315C2.27564 41.4644 3.03888 43.4297 4.43477 44.9155C5.15414 45.6772 6.02085 46.2865 6.98291 46.7071C7.94497 47.1276 8.98255 47.3505 10.0334 47.3626H10.1522C11.2644 47.3629 12.364 47.1288 13.3785 46.6756C14.393 46.2225 15.2993 45.5606 16.0377 44.7337C16.776 43.9068 17.3296 42.9336 17.6618 41.8784C17.9941 40.8232 18.0975 39.7099 17.9653 38.6121C17.918 38.2561 17.9533 37.8941 18.0685 37.5539C18.1837 37.2136 18.3758 36.9041 18.63 36.6491L25.9412 29.3876L27.7781 31.2161L26.6649 32.3235C26.2678 32.7127 26.0227 33.2297 25.9734 33.782C25.9241 34.3343 26.0739 34.886 26.3959 35.3387C26.7179 35.7914 27.1912 36.1157 27.7314 36.2535C28.2716 36.3914 28.8435 36.334 29.3451 36.0915L40.1121 46.7948C40.5482 47.2402 41.0689 47.5951 41.6441 47.8388C42.2193 48.0824 42.8374 48.2101 43.4626 48.2142C44.0878 48.2184 44.7077 48.0991 45.2861 47.8631C45.8645 47.6272 46.39 47.2793 46.8321 46.8398C47.2742 46.4002 47.624 45.8777 47.8613 45.3027C48.0985 44.7276 48.2185 44.1114 48.2142 43.4898C48.2099 42.8683 48.0815 42.2537 47.8363 41.6819C47.5912 41.1101 47.2342 40.5925 46.7861 40.159ZM32.9039 13.6047C33.3289 13.1846 33.6508 12.6727 33.8445 12.1089C34.0382 11.5451 34.0986 10.9444 34.021 10.3536C33.8972 9.33823 34.0259 8.30814 34.3957 7.35369C34.7656 6.39925 35.3654 5.5496 36.1425 4.87926C36.9196 4.20893 37.8502 3.73838 38.8528 3.50888C39.8554 3.27938 40.8994 3.29794 41.8931 3.56293L38.4263 7.01342C38.2787 7.16005 38.1958 7.35894 38.1958 7.56634V10.8823C38.1958 11.0897 38.2787 11.2886 38.4262 11.4353C38.5737 11.582 38.7738 11.6644 38.9824 11.6644H42.3179C42.5265 11.6643 42.7266 11.5819 42.874 11.4352L46.344 7.98865C46.6115 8.97643 46.6311 10.0144 46.401 11.0114C46.1709 12.0085 45.6981 12.9341 45.0242 13.7072C44.3503 14.4802 43.4959 15.077 42.5359 15.4451C41.5759 15.8133 40.5397 15.9416 39.5182 15.8187C38.924 15.7407 38.3197 15.8 37.7524 15.9921C37.1851 16.1841 36.67 16.5038 36.2472 16.9261L28.1651 24.9642L24.8226 21.6435L32.9039 13.6047ZM3.58281 5.15053L4.89732 3.8437L10.2379 7.3849L7.1448 10.4592L3.58281 5.15053ZM17.5145 35.5432C17.0914 35.966 16.7713 36.4796 16.5791 37.0445C16.3868 37.6095 16.3273 38.2108 16.4053 38.8021C16.5614 40.0936 16.3091 41.4014 15.6834 42.5438C15.0577 43.6862 14.0896 44.6066 12.9137 45.177C11.7378 45.7474 10.4124 45.9396 9.12155 45.7269C7.83073 45.5142 6.63858 44.9071 5.71068 43.99C4.78278 43.0729 4.16519 41.8913 3.94369 40.6092C3.7222 39.3272 3.90779 38.0084 4.47469 36.8361C5.04159 35.6637 5.96165 34.6959 7.1071 34.0672C8.25254 33.4385 9.56651 33.18 10.8665 33.3276C11.4666 33.404 12.0763 33.3441 12.6497 33.1522C13.2231 32.9604 13.7452 32.6417 14.1767 32.2202L21.4879 24.9595L24.8273 28.2794L17.5145 35.5432ZM9.24676 10.5812L10.3599 9.47458L30.0035 29.0028L28.8904 30.1086L9.24676 10.5812ZM27.7789 34.5344C27.7057 34.4617 27.6477 34.3755 27.6081 34.2805C27.5685 34.1856 27.5481 34.0838 27.5481 33.981C27.5481 33.8783 27.5685 33.7765 27.6081 33.6816C27.6477 33.5866 27.7057 33.5004 27.7789 33.4277L29.4458 31.7705L31.6705 29.5581L33.339 27.8993C33.4866 27.7527 33.6867 27.6703 33.8954 27.6704C34.1041 27.6705 34.3042 27.7529 34.4517 27.8997C34.5992 28.0464 34.682 28.2454 34.6819 28.4529C34.6819 28.6604 34.5989 28.8593 34.4513 29.0059L28.8896 34.5359C28.742 34.6819 28.5421 34.7636 28.3339 34.7633C28.1257 34.7631 27.9261 34.6807 27.7789 34.5344ZM45.6738 45.689C45.074 46.257 44.2774 46.5738 43.4491 46.5738C42.6208 46.5738 41.8242 46.257 41.2244 45.689L30.5597 35.0873L32.7852 32.8748L35.0098 30.6631L45.6738 41.2648C45.966 41.5553 46.1978 41.9002 46.3559 42.2797C46.5141 42.6593 46.5955 43.0661 46.5955 43.4769C46.5955 43.8877 46.5141 44.2945 46.3559 44.6741C46.1978 45.0536 45.966 45.3985 45.6738 45.689Z" fill="#F07C00"/>
<path d="M35.1164 34.0125C34.969 33.8702 34.7717 33.7915 34.5668 33.7932C34.362 33.795 34.166 33.8772 34.0212 34.022C33.8763 34.1669 33.7942 34.3628 33.7924 34.5677C33.7906 34.7725 33.8694 34.9699 34.0117 35.1172L43.4984 44.6031C43.6457 44.7455 43.8431 44.8242 44.0479 44.8224C44.2528 44.8206 44.4487 44.7385 44.5936 44.5936C44.7384 44.4488 44.8206 44.2528 44.8223 44.048C44.8241 43.8431 44.7454 43.6458 44.6031 43.4985L35.1164 34.0125Z" fill="#F07C00"/>
<path d="M11.9172 35.5312C11.8202 35.4342 11.6994 35.3644 11.5669 35.3289C11.4345 35.2934 11.295 35.2934 11.1625 35.3288L7.67734 36.2664C7.5449 36.3019 7.42413 36.3716 7.32718 36.4685C7.23022 36.5655 7.16049 36.6863 7.12499 36.8187L6.1914 40.3007C6.15591 40.4332 6.15593 40.5727 6.19145 40.7052C6.22697 40.8377 6.29674 40.9584 6.39374 41.0554L8.94452 43.607C9.04149 43.704 9.16228 43.7738 9.29475 43.8093C9.42723 43.8448 9.56673 43.8448 9.69921 43.8093L13.1852 42.8718C13.3176 42.8363 13.4384 42.7666 13.5353 42.6696C13.6323 42.5727 13.702 42.4519 13.7375 42.3195L14.675 38.8335C14.7104 38.7012 14.7105 38.5619 14.6751 38.4296C14.6397 38.2973 14.5702 38.1766 14.4734 38.0796L11.9172 35.5312ZM12.3437 41.4843L9.7289 42.1874L7.81562 40.2734L8.51874 37.6593L11.1328 36.9562L13.0469 38.8695L12.3437 41.4843Z" fill="#F07C00"/>
<path d="M28.6773 22.4274L34.146 16.9586C34.2884 16.8113 34.3671 16.6139 34.3653 16.4091C34.3635 16.2043 34.2814 16.0083 34.1365 15.8635C33.9917 15.7186 33.7957 15.6365 33.5909 15.6347C33.3861 15.6329 33.1887 15.7116 33.0414 15.8539L27.5726 21.3227C27.498 21.3948 27.4385 21.481 27.3975 21.5763C27.3566 21.6716 27.335 21.7741 27.3341 21.8779C27.3332 21.9816 27.353 22.0845 27.3923 22.1805C27.4316 22.2765 27.4896 22.3637 27.5629 22.4371C27.6363 22.5104 27.7235 22.5684 27.8195 22.6077C27.9155 22.647 28.0184 22.6668 28.1221 22.6659C28.2259 22.665 28.3284 22.6434 28.4237 22.6025C28.519 22.5615 28.6052 22.502 28.6773 22.4274Z" fill="#F07C00"/>
<path d="M21.3226 27.5727L16.6351 32.2602C16.5605 32.3323 16.501 32.4185 16.46 32.5138C16.4191 32.6091 16.3975 32.7116 16.3966 32.8154C16.3957 32.9191 16.4155 33.022 16.4548 33.118C16.4941 33.214 16.5521 33.3012 16.6254 33.3746C16.6988 33.4479 16.786 33.5059 16.882 33.5452C16.978 33.5845 17.0809 33.6043 17.1846 33.6034C17.2884 33.6025 17.3909 33.5809 17.4862 33.54C17.5815 33.499 17.6677 33.4395 17.7398 33.3649L22.4273 28.6774C22.5696 28.53 22.6484 28.3327 22.6466 28.1279C22.6448 27.923 22.5626 27.7271 22.4178 27.5822C22.2729 27.4374 22.077 27.3552 21.8721 27.3534C21.6673 27.3516 21.47 27.4304 21.3226 27.5727Z" fill="#F07C00"/>
</svg>
