<svg width="260" height="38" viewBox="0 0 260 38" fill="none" xmlns="http://www.w3.org/2000/svg">
<path fill-rule="evenodd" clip-rule="evenodd" d="M31.4727 4.13705C31.4727 2.12909 33.0624 0.500885 35.0228 0.500885C36.983 0.500885 38.5728 2.12909 38.5728 4.13705V22.9189C38.5728 24.9271 36.983 26.5551 35.0228 26.5551C33.0624 26.5551 31.4727 24.9271 31.4727 22.9189V4.13705ZM252.971 20.8629C253.284 18.7616 255.102 17.3355 257.03 17.677C258.958 18.0184 260.267 19.9996 259.954 22.1003C259.263 26.6381 257.102 30.629 254.026 33.4657C250.99 36.2672 247.067 37.9571 242.791 37.9571C237.985 37.9571 233.634 35.8342 230.484 32.4024C227.335 28.9708 225.386 24.2284 225.386 18.9927C225.386 13.756 227.335 9.01413 230.484 5.58209C233.634 2.15021 237.985 0.0273356 242.791 0.0273356C244.229 0.0273356 245.655 0.222616 247.049 0.605154C248.946 1.12175 250.1 3.21761 249.626 5.28532C249.152 7.35286 247.228 8.60982 245.331 8.09339C244.503 7.86586 243.644 7.75668 242.791 7.75668C239.944 7.75668 237.365 9.01446 235.5 11.0473C233.634 13.0795 232.48 15.8895 232.48 18.9927C232.48 22.0951 233.634 24.905 235.5 26.9371C237.365 28.97 239.944 30.2278 242.791 30.2278C245.338 30.2278 247.663 29.2311 249.454 27.5783C251.282 25.8923 252.564 23.5336 252.971 20.8629ZM82.5975 30.2517H99.3704L112.326 2.51163C113.478 -0.714498 117.702 -0.714498 118.854 2.51163L132.813 32.4006C133.697 34.2977 133.018 36.6136 131.296 37.5728C129.574 38.532 127.46 37.7715 126.576 35.874L115.59 12.3501L104.603 35.874C103.846 37.4985 102.282 37.981 100.73 37.981H82.2803C81.3981 37.981 80.3711 37.8772 79.5038 37.7314C75.7602 37.1014 72.4019 35.1808 69.8321 32.4024C66.654 28.9669 64.6882 24.2245 64.6882 18.9927C64.6882 13.7599 66.654 9.01757 69.8321 5.58209C73.0064 2.15021 77.3817 0.0273356 82.2028 0.0273356C85.4303 0.0273356 88.4707 0.988675 91.0916 2.66451C93.7919 4.39109 96.0258 6.87751 97.539 9.8496C98.4873 11.7086 97.8735 14.0546 96.1673 15.0879C94.4613 16.1215 92.3084 15.4525 91.36 13.5935C90.4566 11.8186 89.1248 10.3346 87.5171 9.30697C85.9768 8.32222 84.1603 7.75668 82.2028 7.75668C79.3101 7.75668 76.6997 9.01446 74.8197 11.0473C72.9429 13.0756 71.7817 15.8854 71.7817 18.9927C71.7817 22.099 72.9429 24.9089 74.8197 26.9371C77.3793 29.7046 79.754 30.1014 82.5975 30.2517ZM3.54682 23.0538C1.58857 23.0538 0.000451269 21.3231 0.000451269 19.1888C0.000451269 17.055 1.58857 15.3243 3.54682 15.3243H17.4521C19.4105 15.3243 20.9987 17.055 20.9987 19.1888C20.9987 21.3231 19.4105 23.0538 17.4521 23.0538H3.54682ZM3.54682 8.12743C1.58812 8.12743 0 6.39643 0 4.26211C0 2.12762 1.58812 0.397107 3.54682 0.397107H23.5509C25.5097 0.397107 27.0978 2.12762 27.0978 4.26211C27.0978 6.39643 25.5097 8.12743 23.5509 8.12743H3.54682ZM3.54682 37.9813C1.58812 37.9813 0 36.2508 0 34.1165C0 31.9817 1.58812 30.2512 3.54682 30.2512H23.5509C25.5097 30.2512 27.0978 31.9817 27.0978 34.1165C27.0978 36.2508 25.5097 37.9813 23.5509 37.9813H3.54682ZM35.0219 37.9813C33.0632 37.9813 31.4751 36.2508 31.4751 34.1165C31.4751 31.9817 33.0632 30.2512 35.0219 30.2512H55.0257C56.9847 30.2512 58.5729 31.9817 58.5729 34.1165C58.5729 36.2508 56.9847 37.9813 55.0257 37.9813H35.0219ZM144.122 2.9675L154.789 25.8106L165.493 2.89204C165.9 1.22684 167.294 0 168.951 0C170.927 0 172.53 1.7459 172.53 3.8997V34.0998C172.53 36.2534 170.927 38 168.951 38C166.974 38 165.372 36.2534 165.372 34.0998V19.9775L157.966 35.8369C156.691 38.5744 152.99 38.7908 151.631 35.874L144.225 20.0154V34.0998C144.225 36.2534 142.623 38 140.646 38C138.67 38 137.067 36.2534 137.067 34.0998V3.8997C137.067 1.7459 138.67 0 140.646 0C142.328 0 143.738 1.264 144.122 2.9675ZM198.834 2.02302L213.322 22.657V3.8997C213.322 1.7459 214.924 0 216.901 0C218.877 0 220.48 1.7459 220.48 3.8997V34.0998C220.48 36.2534 218.877 38 216.901 38C215.547 38 214.369 37.1812 213.761 35.9739L199.276 15.3433V34.0998C199.276 36.2534 197.673 38 195.697 38C193.721 38 192.118 36.2534 192.118 34.0998V3.8997C192.118 1.7459 193.721 0 195.697 0C197.049 0 198.225 0.817294 198.834 2.02302ZM178.949 3.79281C178.949 1.78436 180.539 0.156322 182.499 0.156322C184.46 0.156322 186.049 1.78436 186.049 3.79281V22.5744C186.049 24.5823 184.46 26.2104 182.499 26.2104C180.539 26.2104 178.949 24.5823 178.949 22.5744V3.79281Z" fill="white"/>
<path fill-rule="evenodd" clip-rule="evenodd" d="M115.697 24.3762C113.655 24.3762 112 25.9955 112 27.9945C112 29.9928 113.655 31.6124 115.697 31.6124C117.739 31.6124 119.394 29.9928 119.394 27.9945C119.394 25.9955 117.739 24.3762 115.697 24.3762ZM254.303 10C252.261 10 250.606 11.6196 250.606 13.6183C250.606 15.617 252.261 17.2366 254.303 17.2366C256.345 17.2366 258 15.617 258 13.6183C258 11.6196 256.345 10 254.303 10ZM182.567 30.7634C180.526 30.7634 178.871 32.383 178.871 34.3817C178.871 36.3804 180.526 38 182.567 38C184.61 38 186.265 36.3804 186.265 34.3817C186.265 32.383 184.61 30.7634 182.567 30.7634Z" fill="#F07C00"/>
</svg>
