<svg width="179" height="24" viewBox="0 0 179 24" fill="none" xmlns="http://www.w3.org/2000/svg">
<g clip-path="url(#clip0)">
<path fill-rule="evenodd" clip-rule="evenodd" d="M21.6596 2.61287C21.6596 1.34458 22.7537 0.316349 24.1029 0.316349C25.452 0.316349 26.5461 1.34458 26.5461 2.61287V14.4751C26.5461 15.7434 25.452 16.7716 24.1029 16.7716C22.7537 16.7716 21.6596 15.7434 21.6596 14.4751V2.61287ZM174.097 13.1765C174.312 11.8494 175.563 10.9488 176.89 11.1644C178.217 11.3801 179.118 12.6313 178.902 13.9581C178.427 16.8241 176.94 19.3446 174.823 21.1362C172.733 22.9056 170.034 23.9729 167.091 23.9729C163.783 23.9729 160.789 22.6322 158.621 20.4647C156.454 18.2974 155.113 15.3022 155.113 11.9954C155.113 8.68801 156.454 5.69314 158.621 3.52553C160.789 1.35802 163.783 0.0172648 167.091 0.0172648C168.08 0.0172648 169.061 0.140599 170.021 0.382203C171.327 0.708476 172.121 2.03218 171.794 3.3381C171.468 4.64391 170.144 5.43778 168.839 5.11161C168.269 4.96791 167.678 4.89896 167.091 4.89896C165.131 4.89896 163.356 5.69334 162.073 6.97724C160.789 8.26073 159.995 10.0355 159.995 11.9954C159.995 13.9548 160.789 15.7295 162.073 17.0129C163.356 18.2968 165.131 19.0912 167.091 19.0912C168.843 19.0912 170.444 18.4617 171.676 17.4179C172.934 16.353 173.817 14.8633 174.097 13.1765ZM56.8441 19.1063H68.3875L77.3038 1.58629C78.0962 -0.451262 81.0034 -0.451262 81.7959 1.58629L91.4028 20.4635C92.011 21.6617 91.5437 23.1244 90.3587 23.7302C89.1736 24.336 87.7192 23.8557 87.1109 22.6573L79.55 7.80006L71.9887 22.6573C71.4678 23.6832 70.3915 23.988 69.3233 23.988H56.626C56.0188 23.988 55.312 23.9225 54.7152 23.8304C52.1388 23.4324 49.8276 22.2195 48.059 20.4647C45.8717 18.2949 44.5189 15.2997 44.5189 11.9954C44.5189 8.69049 45.8717 5.69531 48.059 3.52553C50.2436 1.35802 53.2547 0.0172648 56.5726 0.0172648C58.7938 0.0172648 60.8862 0.624427 62.6899 1.68285C64.5482 2.77332 66.0857 4.34369 67.1271 6.2208C67.7797 7.39491 67.3573 8.87658 66.1831 9.52923C65.009 10.182 63.5273 9.75946 62.8747 8.58525C62.253 7.46438 61.3364 6.52712 60.23 5.87809C59.1699 5.25614 57.9198 4.89896 56.5726 4.89896C54.5818 4.89896 52.7853 5.69334 51.4914 6.97724C50.1999 8.25825 49.4006 10.0329 49.4006 11.9954C49.4006 13.9573 50.1999 15.7319 51.4914 17.0129C53.253 18.7608 54.8873 19.0114 56.8441 19.1063ZM2.44095 14.5603C1.09326 14.5603 0.000206675 13.4672 0.000206675 12.1193C0.000206675 10.7716 1.09326 9.67851 2.44095 9.67851H12.0107C13.3584 9.67851 14.4514 10.7716 14.4514 12.1193C14.4514 13.4672 13.3584 14.5603 12.0107 14.5603H2.44095ZM2.44095 5.13312C1.09295 5.13312 0 4.03985 0 2.69186C0 1.34376 1.09295 0.250805 2.44095 0.250805H16.2079C17.5559 0.250805 18.649 1.34376 18.649 2.69186C18.649 4.03985 17.5559 5.13312 16.2079 5.13312H2.44095ZM2.44095 23.9882C1.09295 23.9882 0 22.8953 0 21.5473C0 20.199 1.09295 19.106 2.44095 19.106H16.2079C17.5559 19.106 18.649 20.199 18.649 21.5473C18.649 22.8953 17.5559 23.9882 16.2079 23.9882H2.44095ZM24.1023 23.9882C22.7544 23.9882 21.6614 22.8953 21.6614 21.5473C21.6614 20.199 22.7544 19.106 24.1023 19.106H37.869C39.2173 19.106 40.3102 20.199 40.3102 21.5473C40.3102 22.8953 39.2173 23.9882 37.869 23.9882H24.1023ZM99.1856 1.87421L106.527 16.3015L113.893 1.82655C114.174 0.774847 115.133 0 116.273 0C117.634 0 118.737 1.10267 118.737 2.46297V21.5367C118.737 22.8969 117.634 24 116.273 24C114.913 24 113.81 22.8969 113.81 21.5367V12.6173L108.713 22.6338C107.836 24.3628 105.289 24.4994 104.354 22.6573L99.2567 12.6413V21.5367C99.2567 22.8969 98.154 24 96.7937 24C95.4334 24 94.3304 22.8969 94.3304 21.5367V2.46297C94.3304 1.10267 95.4334 0 96.7937 0C97.9511 0 98.9216 0.798315 99.1856 1.87421ZM136.839 1.2777L146.81 14.3097V2.46297C146.81 1.10267 147.912 0 149.273 0C150.633 0 151.736 1.10267 151.736 2.46297V21.5367C151.736 22.8969 150.633 24 149.273 24C148.341 24 147.531 23.4829 147.112 22.7203L137.143 9.6905V21.5367C137.143 22.8969 136.04 24 134.68 24C133.32 24 132.217 22.8969 132.217 21.5367V2.46297C132.217 1.10267 133.32 0 134.68 0C135.611 0 136.42 0.516186 136.839 1.2777ZM123.154 2.39546C123.154 1.12697 124.248 0.0987297 125.598 0.0987297C126.947 0.0987297 128.041 1.12697 128.041 2.39546V14.2575C128.041 15.5257 126.947 16.5539 125.598 16.5539C124.248 16.5539 123.154 15.5257 123.154 14.2575V2.39546Z" fill="#376A98"/>
<path fill-rule="evenodd" clip-rule="evenodd" d="M79.0497 14.255C77.6429 14.255 76.5027 15.3949 76.5027 16.802C76.5027 18.2086 77.6429 19.3487 79.0497 19.3487C80.4563 19.3487 81.5967 18.2086 81.5967 16.802C81.5967 15.3949 80.4563 14.255 79.0497 14.255ZM174.536 4.13525C173.129 4.13525 171.989 5.27535 171.989 6.68227C171.989 8.0892 173.129 9.22929 174.536 9.22929C175.943 9.22929 177.083 8.0892 177.083 6.68227C177.083 5.27535 175.943 4.13525 174.536 4.13525ZM125.117 18.7511C123.71 18.7511 122.57 19.8912 122.57 21.2981C122.57 22.705 123.71 23.8451 125.117 23.8451C126.524 23.8451 127.664 22.705 127.664 21.2981C127.664 19.8912 126.524 18.7511 125.117 18.7511Z" fill="#F07C00"/>
</g>
<defs>
<clipPath id="clip0">
<rect width="178.934" height="24" fill="white"/>
</clipPath>
</defs>
</svg>
