<svg width="480" height="71" viewBox="0 0 480 71" fill="none" xmlns="http://www.w3.org/2000/svg">
<path d="M0.175049 67.5599L5.93505 66.1199V4.67986L0.175049 3.23986V1.79986H51.5351V19.0799H48.655C47.439 18.1199 46.383 16.9039 45.487 15.4319C43.439 11.9759 42.4151 8.23186 42.4151 4.19987H21.7751V34.4399H32.8151C33.2631 32.0079 34.0951 29.7359 35.3111 27.6239C35.8231 26.6639 36.4311 25.7359 37.1351 24.8399H40.0151V46.4399H37.1351C36.4311 45.5439 35.8231 44.6159 35.3111 43.6559C34.0951 41.5439 33.2631 39.2719 32.8151 36.8399H21.7751V66.5999H44.3351C44.3351 62.5679 45.3591 58.8239 47.4071 55.3679C48.3031 53.8959 49.3591 52.6799 50.5751 51.7199H53.4551V68.9999H0.175049V67.5599Z" fill="#EBF0F5"/>
<path d="M61.0901 67.5599L66.85 66.1199V4.67986L61.0901 3.23986V1.79986H73.57C79.33 1.79986 82.21 4.67986 82.21 10.4399V66.1199L87.97 67.5599V68.9999H61.0901V67.5599Z" fill="#EBF0F5"/>
<path d="M153.741 70.4399C143.501 70.4399 135.501 67.3999 129.741 61.3199C123.981 55.2399 121.101 46.5999 121.101 35.3999C121.101 28.0399 122.349 21.7359 124.845 16.4879C127.405 11.1759 130.957 7.17586 135.501 4.48786C140.109 1.73586 145.421 0.359863 151.437 0.359863C155.085 0.359863 158.765 1.41586 162.477 3.52786C163.885 4.29586 165.293 5.31986 166.701 6.59986C167.789 4.93586 168.909 3.62386 170.061 2.66386C171.213 1.83186 171.853 1.38386 171.981 1.31986H174.381V19.5599H170.541C169.709 16.4879 168.461 13.7039 166.797 11.2079C165.261 8.77586 163.341 6.75986 161.037 5.15986C158.797 3.55986 156.205 2.75986 153.261 2.75986C148.845 2.75986 145.165 5.31986 142.221 10.4399C139.341 15.5599 137.901 23.8799 137.901 35.3999C137.901 47.1119 139.469 55.4959 142.605 60.5519C145.805 65.5439 150.157 68.0399 155.661 68.0399C158.669 68.0399 161.517 67.2079 164.205 65.5439C166.957 63.8159 169.165 61.5439 170.829 58.7279C172.557 55.9119 173.421 52.9359 173.421 49.7999H175.821C175.821 53.4479 174.829 56.8719 172.845 60.0719C170.925 63.2079 168.269 65.7359 164.877 67.6559C161.549 69.5119 157.837 70.4399 153.741 70.4399Z" fill="#EBF0F5"/>
<path d="M201.779 70.4399C196.083 70.4399 191.699 69.2239 188.627 66.7919C185.555 64.3599 184.019 61.2559 184.019 57.4799C184.019 54.9839 184.563 52.5199 185.651 50.0879C186.099 48.9359 186.675 47.8799 187.379 46.9199C190.003 46.2799 192.851 45.7039 195.923 45.1919C202.835 44.0399 208.947 43.3359 214.259 43.0799V40.1999C214.259 33.0959 213.395 28.1999 211.667 25.5119C209.939 22.8239 207.283 21.4799 203.699 21.4799C202.355 21.4799 201.203 21.6399 200.243 21.9599L198.899 22.4399V36.8399L197.651 37.1279C196.627 37.2559 195.763 37.3199 195.059 37.3199C192.883 37.3199 191.123 36.6799 189.779 35.3999C188.499 34.0559 187.859 32.2959 187.859 30.1199C187.859 27.1759 189.331 24.6799 192.275 22.6319C195.283 20.5839 199.731 19.5599 205.619 19.5599C210.611 19.5599 214.899 20.4559 218.483 22.2479C222.131 23.9759 224.883 26.4079 226.739 29.5439C228.659 32.6159 229.619 36.1679 229.619 40.1999V66.1199L235.379 67.5599V68.9999H226.739C222.899 68.9999 219.923 67.8159 217.811 65.4479C216.915 64.4879 216.211 63.2719 215.699 61.7999C214.803 63.3999 213.747 64.8399 212.531 66.1199C209.651 68.9999 206.067 70.4399 201.779 70.4399ZM205.619 67.0799C207.987 67.0799 210.131 65.7999 212.051 63.2399C212.755 62.2799 213.491 60.9999 214.259 59.3999V45.4799C211.315 45.4799 208.499 45.6399 205.811 45.9599C203.827 46.2159 202.483 46.3759 201.779 46.4399C201.459 47.1439 201.139 48.1039 200.819 49.3199C200.179 51.7519 199.859 54.1519 199.859 56.5199C199.859 60.1039 200.403 62.7599 201.491 64.4879C202.579 66.2159 203.955 67.0799 205.619 67.0799Z" fill="#EBF0F5"/>
<path d="M241.184 67.5599L246.944 66.1199V23.8799L241.184 22.4399V20.9999H249.824C253.6 20.9999 256.576 22.2159 258.752 24.6479C259.584 25.6079 260.288 26.7919 260.864 28.1999C261.824 26.4079 262.848 24.9679 263.936 23.8799C266.816 20.9999 270.112 19.5599 273.824 19.5599C277.536 19.5599 280.8 20.3919 283.616 22.0559C286.432 23.6559 288.608 25.8639 290.144 28.6799C291.104 26.8239 292.128 25.3199 293.216 24.1679C296.16 21.0959 299.456 19.5599 303.104 19.5599C306.496 19.5599 309.536 20.2639 312.224 21.6719C314.976 23.0799 317.088 24.9999 318.56 27.4319C320.096 29.8639 320.864 32.5199 320.864 35.3999V66.1199L326.624 67.5599V68.9999H314.144C308.384 68.9999 305.504 66.1199 305.504 60.3599V35.3999C305.504 31.2399 304.864 28.1359 303.584 26.0879C302.304 23.9759 300.864 22.9199 299.264 22.9199C297.408 22.9199 295.52 24.1999 293.6 26.7599C292.832 27.9759 292.16 29.2559 291.584 30.5999V66.1199L297.344 67.5599V68.9999H270.464V67.5599L276.224 66.1199V35.3999C276.224 31.2399 275.584 28.1359 274.304 26.0879C273.024 23.9759 271.584 22.9199 269.984 22.9199C268.128 22.9199 266.24 24.1999 264.32 26.7599C263.552 27.9759 262.88 29.2559 262.304 30.5999V66.1199L268.064 67.5599V68.9999H241.184V67.5599Z" fill="#EBF0F5"/>
<path d="M332.403 67.5599L338.163 66.1199V23.8799L332.403 22.4399V20.9999H344.883C350.643 20.9999 353.523 23.8799 353.523 29.6399V66.1199L359.283 67.5599V68.9999H332.403V67.5599ZM344.883 15.2399C342.963 15.2399 341.363 14.5999 340.083 13.3199C338.803 12.0399 338.163 10.4399 338.163 8.51986C338.163 6.59986 338.803 4.99986 340.083 3.71987C341.363 2.43986 342.963 1.79986 344.883 1.79986C346.803 1.79986 348.403 2.43986 349.683 3.71987C350.963 4.99986 351.603 6.59986 351.603 8.51986C351.603 10.4399 350.963 12.0399 349.683 13.3199C348.403 14.5999 346.803 15.2399 344.883 15.2399Z" fill="#EBF0F5"/>
<path d="M365.028 67.5599L370.788 66.1199V23.8799L365.028 22.4399V20.9999H373.668C377.444 20.9999 380.42 22.2159 382.596 24.6479C383.428 25.6079 384.132 26.7919 384.708 28.1999C385.604 26.5359 386.66 25.0959 387.876 23.8799C390.756 20.9999 394.34 19.5599 398.628 19.5599C402.212 19.5599 405.412 20.3279 408.228 21.8639C411.108 23.3359 413.348 25.2879 414.948 27.7199C416.548 30.1519 417.348 32.7119 417.348 35.3999V66.1199L423.108 67.5599V68.9999H410.628C404.868 68.9999 401.988 66.1199 401.988 60.3599V35.3999C401.988 31.3679 401.252 28.2959 399.78 26.1839C398.372 24.0079 396.708 22.9199 394.788 22.9199C392.356 22.9199 390.18 24.1999 388.26 26.7599C387.428 27.8479 386.724 29.1279 386.148 30.5999V66.1199L391.908 67.5599V68.9999H365.028V67.5599Z" fill="#EBF0F5"/>
<path d="M454.311 70.4399C446.375 70.4399 440.135 68.1999 435.591 63.7199C431.111 59.1759 428.871 52.9359 428.871 44.9999C428.871 37.0639 431.111 30.8559 435.591 26.3759C440.135 21.8319 446.375 19.5599 454.311 19.5599C462.247 19.5599 468.455 21.8319 472.935 26.3759C477.479 30.8559 479.751 37.0639 479.751 44.9999C479.751 52.9359 477.479 59.1759 472.935 63.7199C468.455 68.1999 462.247 70.4399 454.311 70.4399ZM454.311 68.5199C456.871 68.5199 459.015 66.7279 460.743 63.1439C462.535 59.5599 463.431 53.5119 463.431 44.9999C463.431 36.4879 462.535 30.4399 460.743 26.8559C459.015 23.2719 456.871 21.4799 454.311 21.4799C451.751 21.4799 449.575 23.2719 447.783 26.8559C446.055 30.4399 445.191 36.4879 445.191 44.9999C445.191 53.5119 446.055 59.5599 447.783 63.1439C449.575 66.7279 451.751 68.5199 454.311 68.5199Z" fill="#EBF0F5"/>
</svg>
