<svg width="44" height="44" viewBox="0 0 44 44" fill="none" xmlns="http://www.w3.org/2000/svg">
<path d="M16.7101 18.3486H13.9133C13.589 18.3486 13.3262 18.6109 13.3262 18.9345C13.3262 19.2581 13.589 19.5205 13.9133 19.5205H16.7101C17.3868 19.5205 17.9371 18.9723 17.9371 18.2985V13.9061C17.9371 13.2323 17.3867 12.6842 16.7101 12.6842H13.9133C13.589 12.6842 13.3262 12.9465 13.3262 13.2701C13.3262 13.5937 13.589 13.856 13.9133 13.856H16.7101C16.7373 13.856 16.763 13.8804 16.763 13.9061V15.5175H13.9133C13.589 15.5175 13.3262 15.7798 13.3262 16.1034C13.3262 16.427 13.589 16.6893 13.9133 16.6893H16.763V18.2985C16.763 18.3242 16.7373 18.3486 16.7101 18.3486Z" fill="black"/>
<path d="M20.4397 13.8559H23.2387C23.563 13.8559 23.8258 13.5936 23.8258 13.27C23.8258 12.9464 23.563 12.6841 23.2387 12.6841H20.4397C19.7643 12.6841 19.2148 13.2323 19.2148 13.906V18.2985C19.2148 18.9723 19.7643 19.5204 20.4397 19.5204H22.5988C23.2754 19.5204 23.8259 18.9722 23.8259 18.2985V16.7393C23.8259 16.0655 23.2754 15.5174 22.5988 15.5174H20.3891V13.906C20.389 13.8808 20.4141 13.8559 20.4397 13.8559ZM22.5988 16.6893C22.627 16.6893 22.6517 16.7127 22.6517 16.7393V18.2985C22.6517 18.3242 22.626 18.3485 22.5988 18.3485H20.4397C20.4141 18.3485 20.389 18.3238 20.389 18.2985V16.6893H22.5988Z" fill="black"/>
<path d="M26.3278 12.6841C25.6525 12.6841 25.103 13.2323 25.103 13.906V18.2985C25.103 18.9723 25.6525 19.5204 26.3278 19.5204H28.4869C29.1623 19.5204 29.7117 18.9722 29.7117 18.2985V13.906C29.7117 13.2322 29.1622 12.6841 28.4869 12.6841H26.3278ZM28.5376 13.906V18.2985C28.5376 18.3238 28.5126 18.3485 28.487 18.3485H26.3279C26.3014 18.3485 26.2773 18.3246 26.2773 18.2985V13.906C26.2773 13.8798 26.3015 13.8559 26.3279 13.8559H28.487C28.5126 13.8559 28.5376 13.8808 28.5376 13.906Z" fill="black"/>
<path d="M30.9464 11.7207C30.7171 11.9495 30.7171 12.3205 30.9464 12.5492C31.0611 12.6636 31.2113 12.7209 31.3616 12.7209C31.5118 12.7209 31.6621 12.6637 31.7768 12.5492L31.779 12.5471C32.0082 12.3182 32.0071 11.9483 31.7778 11.7196C31.5486 11.4907 31.1758 11.4919 30.9464 11.7207Z" fill="black"/>
<path fill-rule="evenodd" clip-rule="evenodd" d="M39.4161 24.8774C38.0849 24.1524 36.2304 23.5133 34.0196 23.0135C35.2551 20.9365 35.9658 18.5141 35.9658 15.9289C35.9658 14.8559 35.8754 14.0593 35.6837 13.1238C35.0487 10.0258 33.3442 7.20493 30.8844 5.18082C28.3919 3.12959 25.2363 2 21.9989 2C14.2976 2 8.03218 8.24843 8.03218 15.9289C8.03218 18.5141 8.74287 20.9364 9.97833 23.0135C7.76784 23.5133 5.91375 24.1524 4.58278 24.8775C2.86896 25.8112 2 26.878 2 28.0485V33.4722C2 35.5277 4.76361 37.3005 9.78186 38.4641L9.78761 38.4654C11.0693 38.7626 11.0714 38.7631 12.5117 38.9951C15.2329 39.4334 18.2981 39.6771 21.4119 39.7043V41.2169C21.4119 41.5341 21.5229 41.7638 21.7419 41.8997C21.862 41.9742 21.9825 42 22.0926 41.9999C22.2862 41.9999 22.4477 41.9204 22.5179 41.8859C22.5471 41.8715 22.5751 41.8547 22.6016 41.8355L29.0612 37.1826C29.3599 37.0133 29.5366 36.7274 29.5366 36.4081C29.5365 36.0888 29.3599 35.8029 29.0611 35.6337L22.6014 30.983C22.5766 30.9651 22.5503 30.9491 22.5229 30.9352C22.4131 30.8798 22.0788 30.7112 21.7449 30.9162C21.5239 31.0519 21.4119 31.2825 21.4119 31.6017V33.1086C16.5016 33.0661 11.9134 32.492 8.43727 31.4805C7.68095 31.2605 6.99555 31.0232 6.38686 30.774C8.80573 29.7845 12.3505 29.0367 16.3812 28.6799C18.1012 29.4366 20.0015 29.8577 21.9989 29.8577C23.9963 29.8577 25.8966 29.4366 27.6166 28.6799C31.6513 29.037 35.1993 29.7859 37.6185 30.7771C36.6267 31.1821 35.3751 31.5739 33.8225 31.9273C32.9402 32.1308 32.9402 32.8854 32.9402 33.1696V37.7276C32.9402 37.8396 32.9402 38.1804 33.221 38.4052C33.3172 38.4822 33.4679 38.5618 33.6797 38.5618C33.7432 38.5618 33.8123 38.5547 33.8871 38.5381C39.1187 37.3779 42 35.5788 42 33.4721V28.0483C42.0001 26.878 41.1307 25.8112 39.4161 24.8774ZM21.999 28.686C29.0528 28.686 34.7916 22.9632 34.7916 15.9289C34.7916 14.8917 34.7479 14.4058 34.5333 13.3587C33.3233 7.45602 28.0519 3.17186 21.9989 3.17186C14.9451 3.17186 9.20636 8.89459 9.20636 15.9289C9.20636 22.9632 14.9452 28.686 21.999 28.686ZM3.17417 33.4722C3.17417 34.5631 4.97981 36.1476 10.0475 37.3227C11.1485 37.578 11.3133 37.6151 12.6988 37.8383C15.53 38.2943 18.746 38.5353 21.9989 38.5353C22.3232 38.5353 22.586 38.7976 22.586 39.1212V40.4017L28.1301 36.4083L22.586 32.4168V33.6975C22.586 34.021 22.3232 34.2834 21.9989 34.2834C16.7599 34.2834 11.8269 33.6875 8.10866 32.6056C5.84572 31.9472 4.18748 31.1562 3.17417 30.2638V33.4722ZM3.17425 28.0485C3.17425 28.7319 3.82411 29.4459 5.00055 30.1116C7.22991 29.0089 10.5547 28.168 14.5298 27.6936C13.0223 26.7383 11.7102 25.503 10.6672 24.0617C6.10208 25.0353 3.17425 26.5864 3.17425 28.0485ZM34.1144 37.2837C38.2089 36.3107 40.8259 34.8331 40.8259 33.4722V30.2562C39.555 31.3781 37.2777 32.3398 34.1166 33.0625C34.1154 33.0892 34.1144 33.1241 34.1144 33.1697V37.2837ZM29.4682 27.6936C33.4462 28.1682 36.773 29.01 39.0027 30.1141C40.2946 29.3777 40.8259 28.6417 40.826 28.0485C40.826 26.5867 37.8973 25.0355 33.3308 24.0617C32.2877 25.503 30.9757 26.7383 29.4682 27.6936Z" fill="black"/>
</svg>
